<?xml version="1.0" encoding="UTF-8"?>
<svg width="482px" height="74px" viewBox="0 0 482 74" version="1.1" xmlns="http://www.w3.org/2000/svg" xmlns:xlink="http://www.w3.org/1999/xlink">
    <title>appsignal-logo</title>
    <g id="Page-1" stroke="none" stroke-width="1" fill="none" fill-rule="evenodd">
        <g id="appsignal-logo" fill-rule="nonzero">
            <path d="M134.32,11.74 C134.644311,10.490984 135.812679,9.65043194 137.1,9.74 L140.88,9.74 C142.172033,9.63366374 143.350089,10.4811862 143.66,11.74 L156.78,48.87 C157.37,50.58 156.6,51.7 154.78,51.7 L152.05,51.7 C150.757967,51.8063363 149.579911,50.9588138 149.27,49.7 L146.32,41 L131.6,41 L128.7,49.64 C128.419071,50.9253792 127.231494,51.8053826 125.92,51.7 L123.21,51.7 C121.37,51.7 120.6,50.58 121.21,48.87 L134.32,11.74 Z M144.43,34.74 L140.7,23.51 C140,21.14 139.05,17 139.05,17 L138.93,17 C138.93,17 137.98,21.14 137.27,23.51 L133.49,34.74 L144.43,34.74 Z" id="Shape" fill="#21375A"></path>
            <path d="M161.45,24 C161.372399,23.3214279 161.608625,22.6445259 162.091576,22.1615756 C162.574526,21.6786253 163.251428,21.4423992 163.93,21.52 L165.82,21.52 C167.42,21.52 168.25,22.4 168.25,23.59 L168.25,25 C168.249869,25.3940924 168.229843,25.7879269 168.19,26.18 L168.3,26.18 C170.312801,22.7605497 174.034406,20.7155854 178,20.85 C186.16,20.85 191.42,27.29 191.42,36.63 C191.42,46.21 185.51,52.41 177.59,52.41 C174.075548,52.5458409 170.758301,50.7860584 168.9,47.8 L168.78,47.8 C168.915038,48.660336 168.988557,49.5292059 169,50.4 L169,61 C169.101992,61.6848024 168.874153,62.3775031 168.385569,62.8680567 C167.896986,63.3586103 167.205207,63.5892353 166.52,63.49 L163.93,63.49 C163.247617,63.5763509 162.56375,63.3415223 162.078364,62.8541794 C161.592979,62.3668364 161.360904,61.6820296 161.45,61 L161.45,24 Z M176.23,46.09 C180.36,46.09 183.79,42.72 183.79,36.75 C183.79,31.01 180.72,27.29 176.34,27.29 C172.44,27.29 168.72,30.13 168.72,36.81 C168.72,41.48 171.32,46.09 176.23,46.09 Z" id="Shape" fill="#21375A"></path>
            <path d="M197.09,24 C197.012399,23.3214279 197.248625,22.6445259 197.731576,22.1615756 C198.214526,21.6786253 198.891428,21.4423992 199.57,21.52 L201.46,21.52 C203.06,21.52 203.89,22.4 203.89,23.59 L203.89,25 C203.889869,25.3940924 203.869843,25.7879269 203.83,26.18 L204,26.18 C206.012068,22.7659959 209.729491,20.7250576 213.69,20.86 C221.85,20.86 227.11,27.3 227.11,36.64 C227.11,46.22 221.2,52.42 213.28,52.42 C209.765548,52.5558409 206.448301,50.7960584 204.59,47.81 L204.47,47.81 C204.595213,48.6709161 204.655383,49.5400426 204.65,50.41 L204.65,61 C204.748349,61.6858589 204.517847,62.3779742 204.02791,62.8679104 C203.537974,63.3578466 202.845859,63.5883489 202.16,63.49 L199.57,63.49 C198.887617,63.5763509 198.20375,63.3415223 197.718364,62.8541794 C197.232979,62.3668364 197.000904,61.6820296 197.09,61 L197.09,24 Z M211.87,46.09 C216,46.09 219.43,42.72 219.43,36.75 C219.43,31.01 216.36,27.29 211.99,27.29 C208.08,27.29 204.36,30.13 204.36,36.81 C204.36,41.48 207,46.09 211.87,46.09 Z" id="Shape" fill="#21375A"></path>
            <path d="M231.73,44.73 L233.03,42.84 C233.97,41.54 235.03,41.48 236.45,42.31 C238.907365,44.2049447 241.898509,45.2789578 245,45.38 C248.9,45.38 251.26,43.38 251.26,40.59 C251.26,32.59 231.7,34.27 231.7,21.2 C231.7,13.81 237.84,9.01965362 245.82,9.01965362 C249.663206,8.99709759 253.427485,10.1103781 256.64,12.22 C257.214774,12.5418039 257.626475,13.0918664 257.773204,13.7340454 C257.919933,14.3762243 257.787979,15.0505047 257.41,15.59 L256.35,17.54 C255.46,19.25 254.22,19.01 252.98,18.36 C250.821011,16.9252666 248.301342,16.1281224 245.71,16.06 C241.8,16.06 239.32,17.95 239.32,20.79 C239.32,28.65 258.89,26.64 258.89,40 C258.89,46.8 253.8,52.41 245,52.41 C240.366333,52.3657337 235.86132,50.8803727 232.11,48.16 C231.536491,47.8059484 231.157952,47.2075409 231.083736,46.5376473 C231.00952,45.8677538 231.247896,45.201 231.73,44.73 Z" id="Path" fill="#21375A"></path>
            <path d="M264.65,14 L264.65,12.22 C264.556459,11.5478368 264.778366,10.8701225 265.251348,10.383459 C265.72433,9.8967956 266.395443,9.6556583 267.07,9.73 L269.67,9.73 C270.350516,9.65181052 271.029403,9.88929301 271.512791,10.3746302 C271.996179,10.8599674 272.230927,11.5398037 272.15,12.22 L272.15,14 C272.227792,14.6735481 271.98922,15.345145 271.503949,15.8186754 C271.018679,16.2922057 270.341441,16.5142617 269.67,16.42 L267.07,16.42 C266.404529,16.5104594 265.735015,16.2847588 265.260128,15.8098721 C264.785241,15.3349854 264.559541,14.6654712 264.65,14 L264.65,14 Z M264.65,24 C264.559863,23.3294344 264.783292,22.6546895 265.255824,22.1704415 C265.728357,21.6861935 266.397428,21.4463094 267.07,21.52 L269.67,21.52 C270.344204,21.4429604 271.016232,21.681365 271.491158,22.1660628 C271.966084,22.6507606 272.190753,23.3275045 272.1,24 L272.1,49.22 C272.19916,49.8942686 271.977284,50.5761123 271.500308,51.0629026 C271.023332,51.5496929 270.346148,51.7854085 269.67,51.7 L267.07,51.7 C266.394486,51.7862553 265.71766,51.5503947 265.242054,51.062996 C264.766447,50.5755973 264.54723,49.8931995 264.65,49.22 L264.65,24 Z" id="Shape" fill="#21375A"></path>
            <path d="M285.16,56.61 C287.100665,57.3659493 289.167362,57.7460314 291.25,57.73 C295.86,57.73 299.76,55.78 299.76,50.4 L299.76,48.16 C299.76879,47.6447109 299.808864,47.130431 299.88,46.62 L299.76,46.62 C298.1,49.46 295.5,51.11 291.48,51.11 C282.68,51.11 277.83,44.11 277.83,35.8 C277.83,27.49 282.44,20.85 291.42,20.85 C298.42,20.85 300.35,25.46 300.35,25.46 L300.47,25.46 C300.427104,25.205633 300.407024,24.9479415 300.41,24.69 L300.41,23.57 C300.41,22.44 301.24,21.57 302.83,21.57 L304.83,21.57 C305.496045,21.4926932 306.160986,21.7233512 306.636085,22.196503 C307.111184,22.6696548 307.344571,23.3336436 307.27,24 L307.27,49.87 C307.27,60.22 299.11,64.12 291.66,64.12 C288.64921,64.141211 285.661064,63.5985284 282.85,62.52 C282.185866,62.3606351 281.639186,61.8910678 281.381435,61.2585846 C281.123683,60.6261015 281.186432,59.9081775 281.55,59.33 L282,58 C282.68,56.49 283.56,56.08 285.16,56.61 Z M299.94,36 C299.94,29.08 296.51,27.25 292.61,27.25 C287.94,27.25 285.39,30.56 285.39,35.53 C285.39,40.97 288.11,44.81 292.96,44.81 C296.51,44.79 299.94,42.72 299.94,36 Z" id="Shape" fill="#21375A"></path>
            <path d="M314.71,24 C314.619863,23.3294344 314.843292,22.6546895 315.315824,22.1704415 C315.788357,21.6861935 316.457428,21.4463094 317.13,21.52 L319.44,21.52 C320.113548,21.4422076 320.785145,21.6807799 321.258675,22.1660507 C321.732206,22.6513214 321.954262,23.3285587 321.86,24 L321.86,25.83 C321.852635,26.2856228 321.812531,26.7401271 321.74,27.19 L321.86,27.19 C323.914806,23.1937056 328.067331,20.7177141 332.56,20.81 C339.24,20.81 343.08,24.29 343.08,32.27 L343.08,49.22 C343.178465,49.9032134 342.949056,50.5928632 342.460959,51.0809594 C341.972863,51.5690557 341.283213,51.7984648 340.6,51.7 L338.06,51.7 C337.378653,51.7898628 336.694277,51.5576376 336.20832,51.0716802 C335.722362,50.5857228 335.490137,49.9013471 335.58,49.22 L335.58,33.85 C335.58,30.19 334.58,27.7 330.85,27.7 C325.53,27.7 322.16,32.14 322.16,37.58 L322.16,49.22 C322.25916,49.8942686 322.037284,50.5761123 321.560308,51.0629026 C321.083332,51.5496929 320.406148,51.7854085 319.73,51.7 L317.13,51.7 C316.454486,51.7862553 315.77766,51.5503947 315.302054,51.062996 C314.826447,50.5755973 314.60723,49.8931995 314.71,49.22 L314.71,24 Z" id="Path" fill="#21375A"></path>
            <path d="M365.43,33.08 L366.67,33.08 L366.67,32.37 C366.67,28.37 364.13,27.05 361.05,27.05 C358.854727,27.1072034 356.70631,27.6975033 354.79,28.77 C353.31,29.42 352.18,29.18 351.47,27.77 L350.88,26.65 C350.493216,26.0973986 350.381307,25.397905 350.576379,24.7522143 C350.771452,24.1065236 351.251946,23.5860038 351.88,23.34 C354.923563,21.733912 358.308743,20.8833299 361.75,20.86 C369.55,20.86 374.22,25.23 374.22,32.86 L374.22,49.22 C374.318465,49.9032134 374.089056,50.5928632 373.600959,51.0809594 C373.112863,51.5690557 372.423213,51.7984648 371.74,51.7 L369.74,51.7 C369.064486,51.7862553 368.38766,51.5503947 367.912054,51.062996 C367.436447,50.5755973 367.21723,49.8931995 367.32,49.22 L367.32,48 C367.310862,47.5635284 367.351118,47.1274236 367.44,46.7 L367.32,46.7 C365.410392,50.1485012 361.80149,52.3115532 357.86,52.37 C352.36,52.37 347.859828,48.83 347.859828,43.37 C347.81,34.56 358.69,33.08 365.43,33.08 Z M359.81,46.68 C364.01,46.68 366.73,42.42 366.73,38.76 L366.73,37.64 L365.48,37.64 C361.7,37.64 355.26,38.23 355.26,42.72 C355.26,44.73 356.8,46.68 359.81,46.68 Z" id="Shape" fill="#21375A"></path>
            <path d="M381.09,12.22 C380.996459,11.5478368 381.218366,10.8701225 381.691348,10.383459 C382.16433,9.8967956 382.835443,9.6556583 383.51,9.73 L386.11,9.73 C386.785213,9.65638944 387.456773,9.8973516 387.931157,10.3834492 C388.405541,10.8695468 388.630055,11.5467827 388.54,12.22 L388.54,41.71 C388.54,44.71 389.78,45.2 390.9,45.32 C391.430908,45.3446166 391.928168,45.5870768 392.274516,45.9902042 C392.620865,46.3933316 392.785646,46.9214428 392.73,47.45 L392.73,49.45 C392.831342,50.1398173 392.605697,50.8374891 392.119595,51.3373118 C391.633493,51.8371345 390.94237,52.0821067 390.25,52 C386.25,52 381.09,50.94 381.09,42.31 L381.09,12.22 Z" id="Path" fill="#21375A"></path>
            <path d="M472.49,12.54 C467.05,12.54 463.16,17.33 459.15,22.67 C456.66,11.33 453.9,0 445.1,0 C436.3,0 433.53,11.33 431,22.68 C427,17.33 423.11,12.54 417.67,12.54 C414.21,12.54 408.35,14.89 408.35,23.71 L408.35,39.71 C408.35,48.36 412.97,50.48 415.74,51.21 L415.74,51.21 C420.52,52.45 432.03,53.61 444.99,53.61 C457.95,53.61 469.46,52.45 474.24,51.21 L474.24,51.21 C477.01,50.48 481.64,48.36 481.64,39.71 L481.64,23.71 C481.64,14.89 475.78,12.54 472.32,12.54 M445.1,5 C450.37,5 452.38,15.4 455.18,27.88 C452.11,31.66 448.85,34.71 445.1,34.71 C441.35,34.71 438.1,31.66 435.02,27.88 C437.64,16.21 439.66,5 445.1,5 M413.43,39.76 L413.43,23.76 C413.43,18.19 416.43,17.59 417.75,17.59 C421.59,17.59 425.75,23.99 429.64,29.13 C426.86,40.79 423.92,47.89 416.98,46.43 C415.17,45.94 413.47,44.79 413.47,39.81 M427.09,47.92 C430.16,44.58 432.09,39.37 433.62,33.85 C436.83,37.22 440.54,39.76 445.14,39.76 C449.74,39.76 453.44,37.22 456.66,33.85 C458.15,39.37 460.11,44.58 463.18,47.92 C457.81,48.41 451.35,48.71 445.18,48.71 C439.01,48.71 432.5,48.41 427.13,47.92 M476.85,39.81 C476.85,44.81 475.15,45.94 473.34,46.43 C466.39,47.9 463.46,40.79 460.68,29.13 C464.61,23.99 468.68,17.59 472.57,17.59 C473.87,17.59 476.89,18.19 476.89,23.76 L476.85,39.81 Z" id="Shape" fill="#21375A"></path>
            <path d="M7.976,28.468 C9.03333333,28.468 9.93033333,28.286 10.667,27.922 C11.4036667,27.558 12.006,27.0596667 12.474,26.427 C12.942,25.7943333 13.28,25.0533333 13.488,24.204 C13.696,23.3546667 13.8,22.4446667 13.8,21.474 L13.8,21.474 L13.8,9.592 L10.706,9.592 L10.706,21.188 C10.706,21.76 10.667,22.3103333 10.589,22.839 C10.511,23.3676667 10.3723333,23.8313333 10.173,24.23 C9.97366667,24.6286667 9.70066667,24.945 9.354,25.179 C9.00733333,25.413 8.56533333,25.53 8.028,25.53 C7.49066667,25.53 7.04866667,25.413 6.702,25.179 C6.35533333,24.945 6.08233333,24.6286667 5.883,24.23 C5.68366667,23.8313333 5.545,23.3676667 5.467,22.839 C5.389,22.3103333 5.35,21.76 5.35,21.188 L5.35,21.188 L5.35,9.592 L2.23,9.592 L2.23,21.474 C2.23,22.4446667 2.32966667,23.3546667 2.529,24.204 C2.72833333,25.0533333 3.05766667,25.7943333 3.517,26.427 C3.97633333,27.0596667 4.57,27.558 5.298,27.922 C6.026,28.286 6.91866667,28.468 7.976,28.468 Z M20.144,28 L20.144,20.33 C20.144,19.3246667 20.339,18.4926667 20.729,17.834 C21.119,17.1753333 21.6433333,16.846 22.302,16.846 C22.6486667,16.846 22.9303333,16.9283333 23.147,17.093 C23.3636667,17.2576667 23.5283333,17.4786667 23.641,17.756 C23.7536667,18.0333333 23.8273333,18.341 23.862,18.679 C23.8966667,19.017 23.914,19.3506667 23.914,19.68 L23.914,19.68 L23.914,28 L26.852,28 L26.852,19.68 C26.852,19.004 26.8086667,18.341 26.722,17.691 C26.6353333,17.041 26.4706667,16.4646667 26.228,15.962 C25.9853333,15.4593333 25.643,15.0563333 25.201,14.753 C24.759,14.4496667 24.174,14.298 23.446,14.298 C22.614,14.298 21.9163333,14.545 21.353,15.039 C20.7896667,15.533 20.3866667,16.1353333 20.144,16.846 L20.144,16.846 L20.092,16.846 L20.092,14.74 L17.206,14.74 L17.206,28 L20.144,28 Z M33.664,28.338 C34.0106667,28.338 34.3573333,28.3033333 34.704,28.234 C35.0506667,28.1646667 35.328,28.078 35.536,27.974 L35.536,27.974 L35.484,25.686 C35.3626667,25.7553333 35.2196667,25.8073333 35.055,25.842 C34.8903333,25.8766667 34.73,25.894 34.574,25.894 C34.1233333,25.894 33.7896667,25.7293333 33.573,25.4 C33.3563333,25.0706667 33.248,24.542 33.248,23.814 L33.248,23.814 L33.248,17.002 L35.562,17.002 L35.562,14.74 L33.248,14.74 L33.248,11.36 L30.492,11.36 L30.492,14.74 L28.828,14.74 L28.828,17.002 L30.492,17.002 L30.492,24.464 C30.492,25.712 30.739,26.6696667 31.233,27.337 C31.727,28.0043333 32.5373333,28.338 33.664,28.338 Z M42.01,28.442 C43.102,28.442 43.999,28.169 44.701,27.623 C45.403,27.077 45.9446667,26.3446667 46.326,25.426 L46.326,25.426 L44.168,24.178 C43.9773333,24.6286667 43.7216667,25.0273333 43.401,25.374 C43.0803333,25.7206667 42.6513333,25.894 42.114,25.894 C41.7326667,25.894 41.399,25.7943333 41.113,25.595 C40.827,25.3956667 40.5843333,25.127 40.385,24.789 C40.1856667,24.451 40.034,24.0523333 39.93,23.593 C39.826,23.1336667 39.774,22.644 39.774,22.124 L39.774,22.124 L46.664,22.124 L46.664,21.006 C46.664,20.0526667 46.5773333,19.1686667 46.404,18.354 C46.2306667,17.5393333 45.9576667,16.833 45.585,16.235 C45.2123333,15.637 44.727,15.1646667 44.129,14.818 C43.531,14.4713333 42.8073333,14.298 41.958,14.298 C41.1953333,14.298 40.5063333,14.467 39.891,14.805 C39.2756667,15.143 38.7426667,15.624 38.292,16.248 C37.8413333,16.872 37.4946667,17.6216667 37.252,18.497 C37.0093333,19.3723333 36.888,20.3386667 36.888,21.396 C36.888,23.6666667 37.356,25.4086667 38.292,26.622 C39.228,27.8353333 40.4673333,28.442 42.01,28.442 Z M43.856,19.992 L39.8,19.992 C39.8,19.68 39.8433333,19.329 39.93,18.939 C40.0166667,18.549 40.1423333,18.185 40.307,17.847 C40.4716667,17.509 40.6883333,17.2273333 40.957,17.002 C41.2256667,16.7766667 41.5506667,16.664 41.932,16.664 C42.5906667,16.664 43.076,16.9716667 43.388,17.587 C43.7,18.2023333 43.856,19.004 43.856,19.992 L43.856,19.992 Z M52.358,28 L52.358,21.344 C52.358,20.8413333 52.41,20.3473333 52.514,19.862 C52.618,19.3766667 52.774,18.9433333 52.982,18.562 C53.19,18.1806667 53.4413333,17.873 53.736,17.639 C54.0306667,17.405 54.3686667,17.288 54.75,17.288 C54.9753333,17.288 55.1833333,17.314 55.374,17.366 L55.374,17.366 L55.53,14.35 C55.4433333,14.3153333 55.3696667,14.298 55.309,14.298 L55.309,14.298 L55.088,14.298 C54.4293333,14.298 53.8573333,14.5493333 53.372,15.052 C52.8866667,15.5546667 52.5313333,16.3 52.306,17.288 L52.306,17.288 L52.254,17.288 L52.254,14.74 L49.368,14.74 L49.368,28 L52.358,28 Z M60.08,28.442 C60.6346667,28.442 61.1676667,28.3553333 61.679,28.182 C62.1903333,28.0086667 62.6453333,27.74 63.044,27.376 C63.4426667,27.012 63.759,26.557 63.993,26.011 C64.227,25.465 64.344,24.828 64.344,24.1 C64.344,23.4933333 64.253,22.969 64.071,22.527 C63.889,22.085 63.6463333,21.708 63.343,21.396 C63.0396667,21.084 62.7016667,20.8283333 62.329,20.629 C61.9563333,20.4296667 61.5793333,20.2606667 61.198,20.122 C60.522,19.8793333 60.028,19.641 59.716,19.407 C59.404,19.173 59.248,18.796 59.248,18.276 C59.248,17.7733333 59.3953333,17.3703333 59.69,17.067 C59.9846667,16.7636667 60.3486667,16.612 60.782,16.612 C61.25,16.612 61.666,16.716 62.03,16.924 C62.394,17.132 62.6973333,17.4006667 62.94,17.73 L62.94,17.73 L64.5,15.832 C64.0493333,15.3813333 63.5033333,15.013 62.862,14.727 C62.2206667,14.441 61.5013333,14.298 60.704,14.298 C60.1666667,14.298 59.6466667,14.389 59.144,14.571 C58.6413333,14.753 58.1993333,15.0216667 57.818,15.377 C57.4366667,15.7323333 57.129,16.1613333 56.895,16.664 C56.661,17.1666667 56.544,17.7386667 56.544,18.38 C56.544,18.9866667 56.6263333,19.5023333 56.791,19.927 C56.9556667,20.3516667 57.1766667,20.7113333 57.454,21.006 C57.7313333,21.3006667 58.0346667,21.5346667 58.364,21.708 C58.6933333,21.8813333 59.0313333,22.0286667 59.378,22.15 C60.054,22.3926667 60.5956667,22.6526667 61.003,22.93 C61.4103333,23.2073333 61.614,23.658 61.614,24.282 C61.614,24.8193333 61.4753333,25.2526667 61.198,25.582 C60.9206667,25.9113333 60.5393333,26.076 60.054,26.076 C59.4993333,26.076 59.014,25.946 58.598,25.686 C58.182,25.426 57.818,25.114 57.506,24.75 L57.506,24.75 L55.92,26.622 C56.4226667,27.1766667 57.0336667,27.6186667 57.753,27.948 C58.4723333,28.2773333 59.248,28.442 60.08,28.442 Z M70.324,28.338 C70.6706667,28.338 71.0173333,28.3033333 71.364,28.234 C71.7106667,28.1646667 71.988,28.078 72.196,27.974 L72.196,27.974 L72.144,25.686 C72.0226667,25.7553333 71.8796667,25.8073333 71.715,25.842 C71.5503333,25.8766667 71.39,25.894 71.234,25.894 C70.7833333,25.894 70.4496667,25.7293333 70.233,25.4 C70.0163333,25.0706667 69.908,24.542 69.908,23.814 L69.908,23.814 L69.908,17.002 L72.222,17.002 L72.222,14.74 L69.908,14.74 L69.908,11.36 L67.152,11.36 L67.152,14.74 L65.488,14.74 L65.488,17.002 L67.152,17.002 L67.152,24.464 C67.152,25.712 67.399,26.6696667 67.893,27.337 C68.387,28.0043333 69.1973333,28.338 70.324,28.338 Z M77.032,12.634 C77.4826667,12.634 77.8553333,12.4693333 78.15,12.14 C78.4446667,11.8106667 78.592,11.4033333 78.592,10.918 C78.592,10.45 78.4446667,10.0513333 78.15,9.722 C77.8553333,9.39266667 77.4826667,9.228 77.032,9.228 C76.5813333,9.228 76.213,9.39266667 75.927,9.722 C75.641,10.0513333 75.498,10.45 75.498,10.918 C75.498,11.4033333 75.641,11.8106667 75.927,12.14 C76.213,12.4693333 76.5813333,12.634 77.032,12.634 Z M81.114,12.634 C81.5473333,12.634 81.9156667,12.4693333 82.219,12.14 C82.5223333,11.8106667 82.674,11.4033333 82.674,10.918 C82.674,10.45 82.5266667,10.0513333 82.232,9.722 C81.9373333,9.39266667 81.5646667,9.228 81.114,9.228 C80.6633333,9.228 80.295,9.39266667 80.009,9.722 C79.723,10.0513333 79.58,10.45 79.58,10.918 C79.58,11.4033333 79.723,11.8106667 80.009,12.14 C80.295,12.4693333 80.6633333,12.634 81.114,12.634 Z M77.63,28.442 C78.462,28.442 79.1596667,28.195 79.723,27.701 C80.2863333,27.207 80.6893333,26.6046667 80.932,25.894 L80.932,25.894 L80.984,25.894 L80.984,28 L83.87,28 L83.87,14.74 L80.932,14.74 L80.932,22.41 C80.932,23.4153333 80.737,24.243 80.347,24.893 C79.957,25.543 79.4326667,25.868 78.774,25.868 C78.4273333,25.868 78.1456667,25.7856667 77.929,25.621 C77.7123333,25.4563333 77.5476667,25.2396667 77.435,24.971 C77.3223333,24.7023333 77.2486667,24.4033333 77.214,24.074 C77.1793333,23.7446667 77.162,23.4066667 77.162,23.06 L77.162,23.06 L77.162,14.74 L74.224,14.74 L74.224,23.06 C74.224,23.736 74.2673333,24.399 74.354,25.049 C74.4406667,25.699 74.6053333,26.2753333 74.848,26.778 C75.0906667,27.2806667 75.433,27.6836667 75.875,27.987 C76.317,28.2903333 76.902,28.442 77.63,28.442 Z M90.838,28.338 C91.1846667,28.338 91.5313333,28.3033333 91.878,28.234 C92.2246667,28.1646667 92.502,28.078 92.71,27.974 L92.71,27.974 L92.658,25.686 C92.5366667,25.7553333 92.3936667,25.8073333 92.229,25.842 C92.0643333,25.8766667 91.904,25.894 91.748,25.894 C91.2973333,25.894 90.9636667,25.7293333 90.747,25.4 C90.5303333,25.0706667 90.422,24.542 90.422,23.814 L90.422,23.814 L90.422,17.002 L92.736,17.002 L92.736,14.74 L90.422,14.74 L90.422,11.36 L87.666,11.36 L87.666,14.74 L86.002,14.74 L86.002,17.002 L87.666,17.002 L87.666,24.464 C87.666,25.712 87.913,26.6696667 88.407,27.337 C88.901,28.0043333 89.7113333,28.338 90.838,28.338 Z M101.888,28 L101.888,25.504 L96.87,25.504 L101.862,17.106 L101.862,14.74 L94.114,14.74 L94.114,17.236 L98.742,17.236 L93.75,25.53 L93.75,28 L101.888,28 Z M107.764,28.338 C108.110667,28.338 108.457333,28.3033333 108.804,28.234 C109.150667,28.1646667 109.428,28.078 109.636,27.974 L109.636,27.974 L109.584,25.686 C109.462667,25.7553333 109.319667,25.8073333 109.155,25.842 C108.990333,25.8766667 108.83,25.894 108.674,25.894 C108.223333,25.894 107.889667,25.7293333 107.673,25.4 C107.456333,25.0706667 107.348,24.542 107.348,23.814 L107.348,23.814 L107.348,17.002 L109.662,17.002 L109.662,14.74 L107.348,14.74 L107.348,11.36 L104.592,11.36 L104.592,14.74 L102.928,14.74 L102.928,17.002 L104.592,17.002 L104.592,24.464 C104.592,25.712 104.839,26.6696667 105.333,27.337 C105.827,28.0043333 106.637333,28.338 107.764,28.338 Z M80.932,64 L84.442,50.74 L81.452,50.74 L79.294,60.906 L79.242,60.906 L77.006,50.74 L73.912,50.74 L77.422,64 L80.932,64 Z M90.786,64.442 C91.5833333,64.442 92.294,64.2686667 92.918,63.922 C93.542,63.5753333 94.075,63.0943333 94.517,62.479 C94.959,61.8636667 95.297,61.1226667 95.531,60.256 C95.765,59.3893333 95.882,58.436 95.882,57.396 C95.882,56.3386667 95.765,55.3723333 95.531,54.497 C95.297,53.6216667 94.959,52.872 94.517,52.248 C94.075,51.624 93.542,51.143 92.918,50.805 C92.294,50.467 91.5833333,50.298 90.786,50.298 C89.9886667,50.298 89.2736667,50.467 88.641,50.805 C88.0083333,51.143 87.4753333,51.624 87.042,52.248 C86.6086667,52.872 86.275,53.6216667 86.041,54.497 C85.807,55.3723333 85.69,56.3386667 85.69,57.396 C85.69,58.436 85.807,59.3893333 86.041,60.256 C86.275,61.1226667 86.613,61.8636667 87.055,62.479 C87.497,63.0943333 88.03,63.5753333 88.654,63.922 C89.278,64.2686667 89.9886667,64.442 90.786,64.442 Z M90.786,61.868 C90.4046667,61.868 90.0796667,61.751 89.811,61.517 C89.5423333,61.283 89.3213333,60.9666667 89.148,60.568 C88.9746667,60.1693333 88.8446667,59.6926667 88.758,59.138 C88.6713333,58.5833333 88.628,57.994 88.628,57.37 C88.628,56.7286667 88.6713333,56.135 88.758,55.589 C88.8446667,55.043 88.9746667,54.5663333 89.148,54.159 C89.3213333,53.7516667 89.5423333,53.431 89.811,53.197 C90.0796667,52.963 90.4046667,52.846 90.786,52.846 C91.1673333,52.846 91.4923333,52.963 91.761,53.197 C92.0296667,53.431 92.255,53.7516667 92.437,54.159 C92.619,54.5663333 92.7533333,55.043 92.84,55.589 C92.9266667,56.135 92.97,56.7286667 92.97,57.37 C92.97,57.994 92.9266667,58.5833333 92.84,59.138 C92.7533333,59.6926667 92.6233333,60.1693333 92.45,60.568 C92.2766667,60.9666667 92.0513333,61.283 91.774,61.517 C91.4966667,61.751 91.1673333,61.868 90.786,61.868 Z M101.628,64 L101.628,56.33 C101.628,55.3246667 101.823,54.4926667 102.213,53.834 C102.603,53.1753333 103.127333,52.846 103.786,52.846 C104.132667,52.846 104.414333,52.9283333 104.631,53.093 C104.847667,53.2576667 105.012333,53.4786667 105.125,53.756 C105.237667,54.0333333 105.311333,54.341 105.346,54.679 C105.380667,55.017 105.398,55.3506667 105.398,55.68 L105.398,55.68 L105.398,64 L108.336,64 L108.336,55.68 C108.336,55.004 108.292667,54.341 108.206,53.691 C108.119333,53.041 107.954667,52.4646667 107.712,51.962 C107.469333,51.4593333 107.127,51.0563333 106.685,50.753 C106.243,50.4496667 105.658,50.298 104.93,50.298 C104.098,50.298 103.400333,50.545 102.837,51.039 C102.273667,51.533 101.870667,52.1353333 101.628,52.846 L101.628,52.846 L101.576,52.846 L101.576,50.74 L98.69,50.74 L98.69,64 L101.628,64 Z" id="Unterstütztvon" fill="#999999"></path>
        </g>
    </g>
</svg>