<?xml version="1.0" encoding="UTF-8"?>
<svg width="459px" height="65px" viewBox="0 0 459 65" version="1.1" xmlns="http://www.w3.org/2000/svg" xmlns:xlink="http://www.w3.org/1999/xlink">
    <title>appsignal-logo</title>
    <g id="Page-1" stroke="none" stroke-width="1" fill="none" fill-rule="evenodd">
        <g id="appsignal-logo" fill-rule="nonzero">
            <path d="M111.32,11.74 C111.644311,10.490984 112.812679,9.65043194 114.1,9.74 L117.88,9.74 C119.172033,9.63366374 120.350089,10.4811862 120.66,11.74 L133.78,48.87 C134.37,50.58 133.6,51.7 131.78,51.7 L129.05,51.7 C127.757967,51.8063363 126.579911,50.9588138 126.27,49.7 L123.32,41 L108.6,41 L105.7,49.64 C105.419071,50.9253792 104.231494,51.8053826 102.92,51.7 L100.21,51.7 C98.37,51.7 97.6,50.58 98.21,48.87 L111.32,11.74 Z M121.43,34.74 L117.7,23.51 C117,21.14 116.05,17 116.05,17 L115.93,17 C115.93,17 114.98,21.14 114.27,23.51 L110.49,34.74 L121.43,34.74 Z" id="Shape" fill="#21375A"></path>
            <path d="M138.45,24 C138.372399,23.3214279 138.608625,22.6445259 139.091576,22.1615756 C139.574526,21.6786253 140.251428,21.4423992 140.93,21.52 L142.82,21.52 C144.42,21.52 145.25,22.4 145.25,23.59 L145.25,25 C145.249869,25.3940924 145.229843,25.7879269 145.19,26.18 L145.3,26.18 C147.312801,22.7605497 151.034406,20.7155854 155,20.85 C163.16,20.85 168.42,27.29 168.42,36.63 C168.42,46.21 162.51,52.41 154.59,52.41 C151.075548,52.5458409 147.758301,50.7860584 145.9,47.8 L145.78,47.8 C145.915038,48.660336 145.988557,49.5292059 146,50.4 L146,61 C146.101992,61.6848024 145.874153,62.3775031 145.385569,62.8680567 C144.896986,63.3586103 144.205207,63.5892353 143.52,63.49 L140.93,63.49 C140.247617,63.5763509 139.56375,63.3415223 139.078364,62.8541794 C138.592979,62.3668364 138.360904,61.6820296 138.45,61 L138.45,24 Z M153.23,46.09 C157.36,46.09 160.79,42.72 160.79,36.75 C160.79,31.01 157.72,27.29 153.34,27.29 C149.44,27.29 145.72,30.13 145.72,36.81 C145.72,41.48 148.32,46.09 153.23,46.09 Z" id="Shape" fill="#21375A"></path>
            <path d="M174.09,24 C174.012399,23.3214279 174.248625,22.6445259 174.731576,22.1615756 C175.214526,21.6786253 175.891428,21.4423992 176.57,21.52 L178.46,21.52 C180.06,21.52 180.89,22.4 180.89,23.59 L180.89,25 C180.889869,25.3940924 180.869843,25.7879269 180.83,26.18 L181,26.18 C183.012068,22.7659959 186.729491,20.7250576 190.69,20.86 C198.85,20.86 204.11,27.3 204.11,36.64 C204.11,46.22 198.2,52.42 190.28,52.42 C186.765548,52.5558409 183.448301,50.7960584 181.59,47.81 L181.47,47.81 C181.595213,48.6709161 181.655383,49.5400426 181.65,50.41 L181.65,61 C181.748349,61.6858589 181.517847,62.3779742 181.02791,62.8679104 C180.537974,63.3578466 179.845859,63.5883489 179.16,63.49 L176.57,63.49 C175.887617,63.5763509 175.20375,63.3415223 174.718364,62.8541794 C174.232979,62.3668364 174.000904,61.6820296 174.09,61 L174.09,24 Z M188.87,46.09 C193,46.09 196.43,42.72 196.43,36.75 C196.43,31.01 193.36,27.29 188.99,27.29 C185.08,27.29 181.36,30.13 181.36,36.81 C181.36,41.48 184,46.09 188.87,46.09 Z" id="Shape" fill="#21375A"></path>
            <path d="M208.73,44.73 L210.03,42.84 C210.97,41.54 212.03,41.48 213.45,42.31 C215.907365,44.2049447 218.898509,45.2789578 222,45.38 C225.9,45.38 228.26,43.38 228.26,40.59 C228.26,32.59 208.7,34.27 208.7,21.2 C208.7,13.81 214.84,9.01965362 222.82,9.01965362 C226.663206,8.99709759 230.427485,10.1103781 233.64,12.22 C234.214774,12.5418039 234.626475,13.0918664 234.773204,13.7340454 C234.919933,14.3762243 234.787979,15.0505047 234.41,15.59 L233.35,17.54 C232.46,19.25 231.22,19.01 229.98,18.36 C227.821011,16.9252666 225.301342,16.1281224 222.71,16.06 C218.8,16.06 216.32,17.95 216.32,20.79 C216.32,28.65 235.89,26.64 235.89,40 C235.89,46.8 230.8,52.41 222,52.41 C217.366333,52.3657337 212.86132,50.8803727 209.11,48.16 C208.536491,47.8059484 208.157952,47.2075409 208.083736,46.5376473 C208.00952,45.8677538 208.247896,45.201 208.73,44.73 Z" id="Path" fill="#21375A"></path>
            <path d="M241.65,14 L241.65,12.22 C241.556459,11.5478368 241.778366,10.8701225 242.251348,10.383459 C242.72433,9.8967956 243.395443,9.6556583 244.07,9.73 L246.67,9.73 C247.350516,9.65181052 248.029403,9.88929301 248.512791,10.3746302 C248.996179,10.8599674 249.230927,11.5398037 249.15,12.22 L249.15,14 C249.227792,14.6735481 248.98922,15.345145 248.503949,15.8186754 C248.018679,16.2922057 247.341441,16.5142617 246.67,16.42 L244.07,16.42 C243.404529,16.5104594 242.735015,16.2847588 242.260128,15.8098721 C241.785241,15.3349854 241.559541,14.6654712 241.65,14 L241.65,14 Z M241.65,24 C241.559863,23.3294344 241.783292,22.6546895 242.255824,22.1704415 C242.728357,21.6861935 243.397428,21.4463094 244.07,21.52 L246.67,21.52 C247.344204,21.4429604 248.016232,21.681365 248.491158,22.1660628 C248.966084,22.6507606 249.190753,23.3275045 249.1,24 L249.1,49.22 C249.19916,49.8942686 248.977284,50.5761123 248.500308,51.0629026 C248.023332,51.5496929 247.346148,51.7854085 246.67,51.7 L244.07,51.7 C243.394486,51.7862553 242.71766,51.5503947 242.242054,51.062996 C241.766447,50.5755973 241.54723,49.8931995 241.65,49.22 L241.65,24 Z" id="Shape" fill="#21375A"></path>
            <path d="M262.16,56.61 C264.100665,57.3659493 266.167362,57.7460314 268.25,57.73 C272.86,57.73 276.76,55.78 276.76,50.4 L276.76,48.16 C276.76879,47.6447109 276.808864,47.130431 276.88,46.62 L276.76,46.62 C275.1,49.46 272.5,51.11 268.48,51.11 C259.68,51.11 254.83,44.11 254.83,35.8 C254.83,27.49 259.44,20.85 268.42,20.85 C275.42,20.85 277.35,25.46 277.35,25.46 L277.47,25.46 C277.427104,25.205633 277.407024,24.9479415 277.41,24.69 L277.41,23.57 C277.41,22.44 278.24,21.57 279.83,21.57 L281.83,21.57 C282.496045,21.4926932 283.160986,21.7233512 283.636085,22.196503 C284.111184,22.6696548 284.344571,23.3336436 284.27,24 L284.27,49.87 C284.27,60.22 276.11,64.12 268.66,64.12 C265.64921,64.141211 262.661064,63.5985284 259.85,62.52 C259.185866,62.3606351 258.639186,61.8910678 258.381435,61.2585846 C258.123683,60.6261015 258.186432,59.9081775 258.55,59.33 L259,58 C259.68,56.49 260.56,56.08 262.16,56.61 Z M276.94,36 C276.94,29.08 273.51,27.25 269.61,27.25 C264.94,27.25 262.39,30.56 262.39,35.53 C262.39,40.97 265.11,44.81 269.96,44.81 C273.51,44.79 276.94,42.72 276.94,36 Z" id="Shape" fill="#21375A"></path>
            <path d="M291.71,24 C291.619863,23.3294344 291.843292,22.6546895 292.315824,22.1704415 C292.788357,21.6861935 293.457428,21.4463094 294.13,21.52 L296.44,21.52 C297.113548,21.4422076 297.785145,21.6807799 298.258675,22.1660507 C298.732206,22.6513214 298.954262,23.3285587 298.86,24 L298.86,25.83 C298.852635,26.2856228 298.812531,26.7401271 298.74,27.19 L298.86,27.19 C300.914806,23.1937056 305.067331,20.7177141 309.56,20.81 C316.24,20.81 320.08,24.29 320.08,32.27 L320.08,49.22 C320.178465,49.9032134 319.949056,50.5928632 319.460959,51.0809594 C318.972863,51.5690557 318.283213,51.7984648 317.6,51.7 L315.06,51.7 C314.378653,51.7898628 313.694277,51.5576376 313.20832,51.0716802 C312.722362,50.5857228 312.490137,49.9013471 312.58,49.22 L312.58,33.85 C312.58,30.19 311.58,27.7 307.85,27.7 C302.53,27.7 299.16,32.14 299.16,37.58 L299.16,49.22 C299.25916,49.8942686 299.037284,50.5761123 298.560308,51.0629026 C298.083332,51.5496929 297.406148,51.7854085 296.73,51.7 L294.13,51.7 C293.454486,51.7862553 292.77766,51.5503947 292.302054,51.062996 C291.826447,50.5755973 291.60723,49.8931995 291.71,49.22 L291.71,24 Z" id="Path" fill="#21375A"></path>
            <path d="M342.43,33.08 L343.67,33.08 L343.67,32.37 C343.67,28.37 341.13,27.05 338.05,27.05 C335.854727,27.1072034 333.70631,27.6975033 331.79,28.77 C330.31,29.42 329.18,29.18 328.47,27.77 L327.88,26.65 C327.493216,26.0973986 327.381307,25.397905 327.576379,24.7522143 C327.771452,24.1065236 328.251946,23.5860038 328.88,23.34 C331.923563,21.733912 335.308743,20.8833299 338.75,20.86 C346.55,20.86 351.22,25.23 351.22,32.86 L351.22,49.22 C351.318465,49.9032134 351.089056,50.5928632 350.600959,51.0809594 C350.112863,51.5690557 349.423213,51.7984648 348.74,51.7 L346.74,51.7 C346.064486,51.7862553 345.38766,51.5503947 344.912054,51.062996 C344.436447,50.5755973 344.21723,49.8931995 344.32,49.22 L344.32,48 C344.310862,47.5635284 344.351118,47.1274236 344.44,46.7 L344.32,46.7 C342.410392,50.1485012 338.80149,52.3115532 334.86,52.37 C329.36,52.37 324.859828,48.83 324.859828,43.37 C324.81,34.56 335.69,33.08 342.43,33.08 Z M336.81,46.68 C341.01,46.68 343.73,42.42 343.73,38.76 L343.73,37.64 L342.48,37.64 C338.7,37.64 332.26,38.23 332.26,42.72 C332.26,44.73 333.8,46.68 336.81,46.68 Z" id="Shape" fill="#21375A"></path>
            <path d="M358.09,12.22 C357.996459,11.5478368 358.218366,10.8701225 358.691348,10.383459 C359.16433,9.8967956 359.835443,9.6556583 360.51,9.73 L363.11,9.73 C363.785213,9.65638944 364.456773,9.8973516 364.931157,10.3834492 C365.405541,10.8695468 365.630055,11.5467827 365.54,12.22 L365.54,41.71 C365.54,44.71 366.78,45.2 367.9,45.32 C368.430908,45.3446166 368.928168,45.5870768 369.274516,45.9902042 C369.620865,46.3933316 369.785646,46.9214428 369.73,47.45 L369.73,49.45 C369.831342,50.1398173 369.605697,50.8374891 369.119595,51.3373118 C368.633493,51.8371345 367.94237,52.0821067 367.25,52 C363.25,52 358.09,50.94 358.09,42.31 L358.09,12.22 Z" id="Path" fill="#21375A"></path>
            <path d="M449.49,12.54 C444.05,12.54 440.16,17.33 436.15,22.67 C433.66,11.33 430.9,0 422.1,0 C413.3,0 410.53,11.33 408,22.68 C404,17.33 400.11,12.54 394.67,12.54 C391.21,12.54 385.35,14.89 385.35,23.71 L385.35,39.71 C385.35,48.36 389.97,50.48 392.74,51.21 L392.74,51.21 C397.52,52.45 409.03,53.61 421.99,53.61 C434.95,53.61 446.46,52.45 451.24,51.21 L451.24,51.21 C454.01,50.48 458.64,48.36 458.64,39.71 L458.64,23.71 C458.64,14.89 452.78,12.54 449.32,12.54 M422.1,5 C427.37,5 429.38,15.4 432.18,27.88 C429.11,31.66 425.85,34.71 422.1,34.71 C418.35,34.71 415.1,31.66 412.02,27.88 C414.64,16.21 416.66,5 422.1,5 M390.43,39.76 L390.43,23.76 C390.43,18.19 393.43,17.59 394.75,17.59 C398.59,17.59 402.75,23.99 406.64,29.13 C403.86,40.79 400.92,47.89 393.98,46.43 C392.17,45.94 390.47,44.79 390.47,39.81 M404.09,47.92 C407.16,44.58 409.09,39.37 410.62,33.85 C413.83,37.22 417.54,39.76 422.14,39.76 C426.74,39.76 430.44,37.22 433.66,33.85 C435.15,39.37 437.11,44.58 440.18,47.92 C434.81,48.41 428.35,48.71 422.18,48.71 C416.01,48.71 409.5,48.41 404.13,47.92 M453.85,39.81 C453.85,44.81 452.15,45.94 450.34,46.43 C443.39,47.9 440.46,40.79 437.68,29.13 C441.61,23.99 445.68,17.59 449.57,17.59 C450.87,17.59 453.89,18.19 453.89,23.76 L453.85,39.81 Z" id="Shape" fill="#21375A"></path>
            <path d="M6.558,24.369 C7.39166667,24.369 8.09891667,24.2255 8.67975,23.9385 C9.26058333,23.6515 9.7355,23.2585833 10.1045,22.75975 C10.4735,22.2609167 10.74,21.6766667 10.904,21.007 C11.068,20.3373333 11.15,19.6198333 11.15,18.8545 L11.15,18.8545 L11.15,9.486 L8.7105,9.486 L8.7105,18.629 C8.7105,19.08 8.67975,19.5139167 8.61825,19.93075 C8.55675,20.3475833 8.44741667,20.7131667 8.29025,21.0275 C8.13308333,21.3418333 7.91783333,21.59125 7.6445,21.77575 C7.37116667,21.96025 7.02266667,22.0525 6.599,22.0525 C6.17533333,22.0525 5.82683333,21.96025 5.5535,21.77575 C5.28016667,21.59125 5.06491667,21.3418333 4.90775,21.0275 C4.75058333,20.7131667 4.64125,20.3475833 4.57975,19.93075 C4.51825,19.5139167 4.4875,19.08 4.4875,18.629 L4.4875,18.629 L4.4875,9.486 L2.0275,9.486 L2.0275,18.8545 C2.0275,19.6198333 2.10608333,20.3373333 2.26325,21.007 C2.42041667,21.6766667 2.68008333,22.2609167 3.04225,22.75975 C3.40441667,23.2585833 3.8725,23.6515 4.4465,23.9385 C5.0205,24.2255 5.72433333,24.369 6.558,24.369 Z M16.152,24 L16.152,17.9525 C16.152,17.1598333 16.30575,16.5038333 16.61325,15.9845 C16.92075,15.4651667 17.3341667,15.2055 17.8535,15.2055 C18.1268333,15.2055 18.3489167,15.2704167 18.51975,15.40025 C18.6905833,15.5300833 18.8204167,15.7043333 18.90925,15.923 C18.9980833,16.1416667 19.0561667,16.38425 19.0835,16.65075 C19.1108333,16.91725 19.1245,17.1803333 19.1245,17.44 L19.1245,17.44 L19.1245,24 L21.441,24 L21.441,17.44 C21.441,16.907 21.4068333,16.38425 21.3385,15.87175 C21.2701667,15.35925 21.1403333,14.9048333 20.949,14.5085 C20.7576667,14.1121667 20.48775,13.7944167 20.13925,13.55525 C19.79075,13.3160833 19.3295,13.1965 18.7555,13.1965 C18.0995,13.1965 17.5494167,13.39125 17.10525,13.78075 C16.6610833,14.17025 16.3433333,14.6451667 16.152,15.2055 L16.152,15.2055 L16.111,15.2055 L16.111,13.545 L13.8355,13.545 L13.8355,24 L16.152,24 Z M26.812,24.2665 C27.0853333,24.2665 27.3586667,24.2391667 27.632,24.1845 C27.9053333,24.1298333 28.124,24.0615 28.288,23.9795 L28.288,23.9795 L28.247,22.1755 C28.1513333,22.2301667 28.0385833,22.2711667 27.90875,22.2985 C27.7789167,22.3258333 27.6525,22.3395 27.5295,22.3395 C27.1741667,22.3395 26.9110833,22.2096667 26.74025,21.95 C26.5694167,21.6903333 26.484,21.2735 26.484,20.6995 L26.484,20.6995 L26.484,15.3285 L28.3085,15.3285 L28.3085,13.545 L26.484,13.545 L26.484,10.88 L24.311,10.88 L24.311,13.545 L22.999,13.545 L22.999,15.3285 L24.311,15.3285 L24.311,21.212 C24.311,22.196 24.50575,22.9510833 24.89525,23.47725 C25.28475,24.0034167 25.9236667,24.2665 26.812,24.2665 Z M33.3925,24.3485 C34.2535,24.3485 34.96075,24.13325 35.51425,23.70275 C36.06775,23.27225 36.4948333,22.6948333 36.7955,21.9705 L36.7955,21.9705 L35.094,20.9865 C34.9436667,21.3418333 34.7420833,21.6561667 34.48925,21.9295 C34.2364167,22.2028333 33.8981667,22.3395 33.4745,22.3395 C33.1738333,22.3395 32.91075,22.2609167 32.68525,22.10375 C32.45975,21.9465833 32.2684167,21.73475 32.11125,21.46825 C31.9540833,21.20175 31.8345,20.8874167 31.7525,20.52525 C31.6705,20.1630833 31.6295,19.777 31.6295,19.367 L31.6295,19.367 L37.062,19.367 L37.062,18.4855 C37.062,17.7338333 36.9936667,17.0368333 36.857,16.3945 C36.7203333,15.7521667 36.5050833,15.19525 36.21125,14.72375 C35.9174167,14.25225 35.53475,13.8798333 35.06325,13.6065 C34.59175,13.3331667 34.0211667,13.1965 33.3515,13.1965 C32.7501667,13.1965 32.2069167,13.32975 31.72175,13.59625 C31.2365833,13.86275 30.8163333,14.242 30.461,14.734 C30.1056667,15.226 29.8323333,15.8170833 29.641,16.50725 C29.4496667,17.1974167 29.354,17.9593333 29.354,18.793 C29.354,20.5833333 29.723,21.9568333 30.461,22.9135 C31.199,23.8701667 32.1761667,24.3485 33.3925,24.3485 Z M34.848,17.686 L31.65,17.686 C31.65,17.44 31.6841667,17.16325 31.7525,16.85575 C31.8208333,16.54825 31.9199167,16.26125 32.04975,15.99475 C32.1795833,15.72825 32.3504167,15.5061667 32.56225,15.3285 C32.7740833,15.1508333 33.0303333,15.062 33.331,15.062 C33.8503333,15.062 34.233,15.3045833 34.479,15.78975 C34.725,16.2749167 34.848,16.907 34.848,17.686 L34.848,17.686 Z M41.5515,24 L41.5515,18.752 C41.5515,18.3556667 41.5925,17.9661667 41.6745,17.5835 C41.7565,17.2008333 41.8795,16.8591667 42.0435,16.5585 C42.2075,16.2578333 42.4056667,16.01525 42.638,15.83075 C42.8703333,15.64625 43.1368333,15.554 43.4375,15.554 C43.6151667,15.554 43.7791667,15.5745 43.9295,15.6155 L43.9295,15.6155 L44.0525,13.2375 C43.9841667,13.2101667 43.9260833,13.1965 43.87825,13.1965 L43.87825,13.1965 L43.704,13.1965 C43.1846667,13.1965 42.7336667,13.3946667 42.351,13.791 C41.9683333,14.1873333 41.6881667,14.775 41.5105,15.554 L41.5105,15.554 L41.4695,15.554 L41.4695,13.545 L39.194,13.545 L39.194,24 L41.5515,24 Z M47.64,24.3485 C48.0773333,24.3485 48.4975833,24.2801667 48.90075,24.1435 C49.3039167,24.0068333 49.6626667,23.795 49.977,23.508 C50.2913333,23.221 50.54075,22.86225 50.72525,22.43175 C50.90975,22.00125 51.002,21.499 51.002,20.925 C51.002,20.4466667 50.93025,20.03325 50.78675,19.68475 C50.64325,19.33625 50.4519167,19.039 50.21275,18.793 C49.9735833,18.547 49.7070833,18.3454167 49.41325,18.18825 C49.1194167,18.0310833 48.8221667,17.8978333 48.5215,17.7885 C47.9885,17.5971667 47.599,17.40925 47.353,17.22475 C47.107,17.04025 46.984,16.743 46.984,16.333 C46.984,15.9366667 47.1001667,15.6189167 47.3325,15.37975 C47.5648333,15.1405833 47.8518333,15.021 48.1935,15.021 C48.5625,15.021 48.8905,15.103 49.1775,15.267 C49.4645,15.431 49.7036667,15.6428333 49.895,15.9025 L49.895,15.9025 L51.125,14.406 C50.7696667,14.0506667 50.3391667,13.76025 49.8335,13.53475 C49.3278333,13.30925 48.7606667,13.1965 48.132,13.1965 C47.7083333,13.1965 47.2983333,13.26825 46.902,13.41175 C46.5056667,13.55525 46.1571667,13.7670833 45.8565,14.04725 C45.5558333,14.3274167 45.31325,14.6656667 45.12875,15.062 C44.94425,15.4583333 44.852,15.9093333 44.852,16.415 C44.852,16.8933333 44.9169167,17.2999167 45.04675,17.63475 C45.1765833,17.9695833 45.3508333,18.2531667 45.5695,18.4855 C45.7881667,18.7178333 46.0273333,18.9023333 46.287,19.039 C46.5466667,19.1756667 46.8131667,19.2918333 47.0865,19.3875 C47.6195,19.5788333 48.0465833,19.7838333 48.36775,20.0025 C48.6889167,20.2211667 48.8495,20.5765 48.8495,21.0685 C48.8495,21.4921667 48.7401667,21.8338333 48.5215,22.0935 C48.3028333,22.3531667 48.0021667,22.483 47.6195,22.483 C47.1821667,22.483 46.7995,22.3805 46.4715,22.1755 C46.1435,21.9705 45.8565,21.7245 45.6105,21.4375 L45.6105,21.4375 L44.36,22.9135 C44.7563333,23.3508333 45.2380833,23.6993333 45.80525,23.959 C46.3724167,24.2186667 46.984,24.3485 47.64,24.3485 Z M55.717,24.2665 C55.9903333,24.2665 56.2636667,24.2391667 56.537,24.1845 C56.8103333,24.1298333 57.029,24.0615 57.193,23.9795 L57.193,23.9795 L57.152,22.1755 C57.0563333,22.2301667 56.9435833,22.2711667 56.81375,22.2985 C56.6839167,22.3258333 56.5575,22.3395 56.4345,22.3395 C56.0791667,22.3395 55.8160833,22.2096667 55.64525,21.95 C55.4744167,21.6903333 55.389,21.2735 55.389,20.6995 L55.389,20.6995 L55.389,15.3285 L57.2135,15.3285 L57.2135,13.545 L55.389,13.545 L55.389,10.88 L53.216,10.88 L53.216,13.545 L51.904,13.545 L51.904,15.3285 L53.216,15.3285 L53.216,21.212 C53.216,22.196 53.41075,22.9510833 53.80025,23.47725 C54.18975,24.0034167 54.8286667,24.2665 55.717,24.2665 Z M61.006,11.8845 C61.3613333,11.8845 61.6551667,11.7546667 61.8875,11.495 C62.1198333,11.2353333 62.236,10.9141667 62.236,10.5315 C62.236,10.1625 62.1198333,9.84816667 61.8875,9.5885 C61.6551667,9.32883333 61.3613333,9.199 61.006,9.199 C60.6506667,9.199 60.36025,9.32883333 60.13475,9.5885 C59.90925,9.84816667 59.7965,10.1625 59.7965,10.5315 C59.7965,10.9141667 59.90925,11.2353333 60.13475,11.495 C60.36025,11.7546667 60.6506667,11.8845 61.006,11.8845 Z M64.2245,11.8845 C64.5661667,11.8845 64.8565833,11.7546667 65.09575,11.495 C65.3349167,11.2353333 65.4545,10.9141667 65.4545,10.5315 C65.4545,10.1625 65.3383333,9.84816667 65.106,9.5885 C64.8736667,9.32883333 64.5798333,9.199 64.2245,9.199 C63.8691667,9.199 63.57875,9.32883333 63.35325,9.5885 C63.12775,9.84816667 63.015,10.1625 63.015,10.5315 C63.015,10.9141667 63.12775,11.2353333 63.35325,11.495 C63.57875,11.7546667 63.8691667,11.8845 64.2245,11.8845 Z M61.4775,24.3485 C62.1335,24.3485 62.6835833,24.15375 63.12775,23.76425 C63.5719167,23.37475 63.8896667,22.8998333 64.081,22.3395 L64.081,22.3395 L64.122,22.3395 L64.122,24 L66.3975,24 L66.3975,13.545 L64.081,13.545 L64.081,19.5925 C64.081,20.3851667 63.92725,21.03775 63.61975,21.55025 C63.31225,22.06275 62.8988333,22.319 62.3795,22.319 C62.1061667,22.319 61.8840833,22.2540833 61.71325,22.12425 C61.5424167,21.9944167 61.4125833,21.8235833 61.32375,21.61175 C61.2349167,21.3999167 61.1768333,21.1641667 61.1495,20.9045 C61.1221667,20.6448333 61.1085,20.3783333 61.1085,20.105 L61.1085,20.105 L61.1085,13.545 L58.792,13.545 L58.792,20.105 C58.792,20.638 58.8261667,21.16075 58.8945,21.67325 C58.9628333,22.18575 59.0926667,22.6401667 59.284,23.0365 C59.4753333,23.4328333 59.74525,23.7505833 60.09375,23.98975 C60.44225,24.2289167 60.9035,24.3485 61.4775,24.3485 Z M71.8915,24.2665 C72.1648333,24.2665 72.4381667,24.2391667 72.7115,24.1845 C72.9848333,24.1298333 73.2035,24.0615 73.3675,23.9795 L73.3675,23.9795 L73.3265,22.1755 C73.2308333,22.2301667 73.1180833,22.2711667 72.98825,22.2985 C72.8584167,22.3258333 72.732,22.3395 72.609,22.3395 C72.2536667,22.3395 71.9905833,22.2096667 71.81975,21.95 C71.6489167,21.6903333 71.5635,21.2735 71.5635,20.6995 L71.5635,20.6995 L71.5635,15.3285 L73.388,15.3285 L73.388,13.545 L71.5635,13.545 L71.5635,10.88 L69.3905,10.88 L69.3905,13.545 L68.0785,13.545 L68.0785,15.3285 L69.3905,15.3285 L69.3905,21.212 C69.3905,22.196 69.58525,22.9510833 69.97475,23.47725 C70.36425,24.0034167 71.0031667,24.2665 71.8915,24.2665 Z M80.604,24 L80.604,22.032 L76.6475,22.032 L80.5835,15.4105 L80.5835,13.545 L74.4745,13.545 L74.4745,15.513 L78.1235,15.513 L74.1875,22.0525 L74.1875,24 L80.604,24 Z M85.237,24.2665 C85.5103333,24.2665 85.7836667,24.2391667 86.057,24.1845 C86.3303333,24.1298333 86.549,24.0615 86.713,23.9795 L86.713,23.9795 L86.672,22.1755 C86.5763333,22.2301667 86.4635833,22.2711667 86.33375,22.2985 C86.2039167,22.3258333 86.0775,22.3395 85.9545,22.3395 C85.5991667,22.3395 85.3360833,22.2096667 85.16525,21.95 C84.9944167,21.6903333 84.909,21.2735 84.909,20.6995 L84.909,20.6995 L84.909,15.3285 L86.7335,15.3285 L86.7335,13.545 L84.909,13.545 L84.909,10.88 L82.736,10.88 L82.736,13.545 L81.424,13.545 L81.424,15.3285 L82.736,15.3285 L82.736,21.212 C82.736,22.196 82.93075,22.9510833 83.32025,23.47725 C83.70975,24.0034167 84.3486667,24.2665 85.237,24.2665 Z M64.081,53 L66.8485,42.545 L64.491,42.545 L62.7895,50.5605 L62.7485,50.5605 L60.9855,42.545 L58.546,42.545 L61.3135,53 L64.081,53 Z M71.8505,53.3485 C72.4791667,53.3485 73.0395,53.2118333 73.5315,52.9385 C74.0235,52.6651667 74.44375,52.2859167 74.79225,51.80075 C75.14075,51.3155833 75.40725,50.7313333 75.59175,50.048 C75.77625,49.3646667 75.8685,48.613 75.8685,47.793 C75.8685,46.9593333 75.77625,46.1974167 75.59175,45.50725 C75.40725,44.8170833 75.14075,44.226 74.79225,43.734 C74.44375,43.242 74.0235,42.86275 73.5315,42.59625 C73.0395,42.32975 72.4791667,42.1965 71.8505,42.1965 C71.2218333,42.1965 70.6580833,42.32975 70.15925,42.59625 C69.6604167,42.86275 69.2401667,43.242 68.8985,43.734 C68.5568333,44.226 68.29375,44.8170833 68.10925,45.50725 C67.92475,46.1974167 67.8325,46.9593333 67.8325,47.793 C67.8325,48.613 67.92475,49.3646667 68.10925,50.048 C68.29375,50.7313333 68.56025,51.3155833 68.90875,51.80075 C69.25725,52.2859167 69.6775,52.6651667 70.1695,52.9385 C70.6615,53.2118333 71.2218333,53.3485 71.8505,53.3485 Z M71.8505,51.319 C71.5498333,51.319 71.2935833,51.22675 71.08175,51.04225 C70.8699167,50.85775 70.6956667,50.6083333 70.559,50.294 C70.4223333,49.9796667 70.3198333,49.6038333 70.2515,49.1665 C70.1831667,48.7291667 70.149,48.2645 70.149,47.7725 C70.149,47.2668333 70.1831667,46.79875 70.2515,46.36825 C70.3198333,45.93775 70.4223333,45.5619167 70.559,45.24075 C70.6956667,44.9195833 70.8699167,44.66675 71.08175,44.48225 C71.2935833,44.29775 71.5498333,44.2055 71.8505,44.2055 C72.1511667,44.2055 72.4074167,44.29775 72.61925,44.48225 C72.8310833,44.66675 73.00875,44.9195833 73.15225,45.24075 C73.29575,45.5619167 73.4016667,45.93775 73.47,46.36825 C73.5383333,46.79875 73.5725,47.2668333 73.5725,47.7725 C73.5725,48.2645 73.5383333,48.7291667 73.47,49.1665 C73.4016667,49.6038333 73.2991667,49.9796667 73.1625,50.294 C73.0258333,50.6083333 72.8481667,50.85775 72.6295,51.04225 C72.4108333,51.22675 72.1511667,51.319 71.8505,51.319 Z M80.399,53 L80.399,46.9525 C80.399,46.1598333 80.55275,45.5038333 80.86025,44.9845 C81.16775,44.4651667 81.5811667,44.2055 82.1005,44.2055 C82.3738333,44.2055 82.5959167,44.2704167 82.76675,44.40025 C82.9375833,44.5300833 83.0674167,44.7043333 83.15625,44.923 C83.2450833,45.1416667 83.3031667,45.38425 83.3305,45.65075 C83.3578333,45.91725 83.3715,46.1803333 83.3715,46.44 L83.3715,46.44 L83.3715,53 L85.688,53 L85.688,46.44 C85.688,45.907 85.6538333,45.38425 85.5855,44.87175 C85.5171667,44.35925 85.3873333,43.9048333 85.196,43.5085 C85.0046667,43.1121667 84.73475,42.7944167 84.38625,42.55525 C84.03775,42.3160833 83.5765,42.1965 83.0025,42.1965 C82.3465,42.1965 81.7964167,42.39125 81.35225,42.78075 C80.9080833,43.17025 80.5903333,43.6451667 80.399,44.2055 L80.399,44.2055 L80.358,44.2055 L80.358,42.545 L78.0825,42.545 L78.0825,53 L80.399,53 Z" id="Unterstütztvon" fill="#999999"></path>
        </g>
    </g>
</svg>