<?xml version="1.0" encoding="UTF-8"?>
<svg width="220px" height="28px" viewBox="0 0 220 28" version="1.1" xmlns="http://www.w3.org/2000/svg" xmlns:xlink="http://www.w3.org/1999/xlink">
    <!-- Generator: Sketch 57.1 (83088) - https://sketch.com -->
    <title>Group</title>
    <desc>Created with Sketch.</desc>
    <g id="Page-1" stroke="none" stroke-width="1" fill="none" fill-rule="evenodd">
        <g id="Group">
            <path d="M0,0 L220,0 L220,28 L8,28 C3.581722,28 5.41083001e-16,24.418278 0,20 L0,0 L0,0 Z" id="Rectangle" fill="#E7C157"></path>
            <path d="M15.2548828,15.3266602 L13.3208008,15.3266602 C12.4298458,15.3266602 11.7588727,15.48299 11.3078613,15.7956543 C10.85685,16.1083186 10.6313477,16.5745412 10.6313477,17.1943359 C10.6313477,17.753258 10.8001285,18.1876612 11.1376953,18.4975586 C11.4752621,18.807456 11.9428681,18.9624023 12.5405273,18.9624023 C13.3816774,18.9624023 14.0429663,18.6704945 14.5244141,18.0866699 C15.0058618,17.5028454 15.2493489,16.6962942 15.2548828,15.6669922 L15.2548828,15.3266602 Z M16.7905273,14.6958008 L16.7905273,20 L15.2548828,20 L15.2548828,18.6220703 C14.9283838,19.1754585 14.5174992,19.5835762 14.0222168,19.8464355 C13.5269344,20.1092949 12.9251338,20.2407227 12.2167969,20.2407227 C11.2705031,20.2407227 10.5151395,19.9737169 9.95068359,19.4396973 C9.38622765,18.9056777 9.10400391,18.1904342 9.10400391,17.2939453 C9.10400391,16.2591094 9.45124978,15.47331 10.145752,14.9365234 C10.8402541,14.3997369 11.8598566,14.1313477 13.2045898,14.1313477 L15.2548828,14.1313477 L15.2548828,13.890625 C15.2493489,13.1490848 15.0611998,12.6109229 14.6904297,12.276123 C14.3196596,11.9413232 13.7275431,11.7739258 12.9140625,11.7739258 C12.3938776,11.7739258 11.8681667,11.8486321 11.3369141,11.9980469 C10.8056614,12.1474617 10.2882512,12.3660467 9.78466797,12.6538086 L9.78466797,11.1264648 C10.3491239,10.9106435 10.8900528,10.7487798 11.4074707,10.6408691 C11.9248887,10.5329584 12.4270809,10.4790039 12.9140625,10.4790039 C13.6832721,10.4790039 14.3404107,10.5924468 14.885498,10.8193359 C15.4305854,11.0462251 15.8719059,11.3865537 16.2094727,11.840332 C16.4197602,12.1170261 16.5691727,12.4587382 16.6577148,12.8654785 C16.746257,13.2722188 16.7905273,13.8823202 16.7905273,14.6958008 Z M27.8222656,12.6206055 C27.4957666,12.3660469 27.1637387,12.1806646 26.8261719,12.0644531 C26.4886051,11.9482416 26.1178406,11.8901367 25.7138672,11.8901367 C24.7620395,11.8901367 24.034345,12.1889619 23.5307617,12.7866211 C23.0271785,13.3842803 22.7753906,14.2475529 22.7753906,15.3764648 L22.7753906,20 L21.2397461,20 L21.2397461,10.703125 L22.7753906,10.703125 L22.7753906,12.5209961 C23.0299492,11.8624642 23.4214655,11.357505 23.9499512,11.0061035 C24.4784369,10.654702 25.1051396,10.4790039 25.8300781,10.4790039 C26.2063821,10.4790039 26.5577783,10.5260412 26.8842773,10.6201172 C27.2107764,10.7141932 27.523436,10.8608388 27.8222656,11.0600586 L27.8222656,12.6206055 Z M37.2768555,19.5268555 C36.8673482,19.7648124 36.4453961,19.9432774 36.0109863,20.0622559 C35.5765766,20.1812343 35.1324892,20.2407227 34.6787109,20.2407227 C33.2399017,20.2407227 32.115157,19.8090863 31.3044434,18.9458008 C30.4937297,18.0825152 30.0883789,16.8872147 30.0883789,15.3598633 C30.0883789,13.8325119 30.4937297,12.6372113 31.3044434,11.7739258 C32.115157,10.9106402 33.2399017,10.4790039 34.6787109,10.4790039 C35.1269554,10.4790039 35.5641255,10.5371088 35.9902344,10.6533203 C36.4163433,10.7695318 36.8452127,10.9493803 37.2768555,11.1928711 L37.2768555,12.7949219 C36.8728821,12.4352196 36.4675313,12.175131 36.060791,12.0146484 C35.6540507,11.8541659 35.1933619,11.7739258 34.6787109,11.7739258 C33.7213494,11.7739258 32.9853541,12.0838185 32.4707031,12.7036133 C31.9560521,13.323408 31.6987305,14.2088159 31.6987305,15.3598633 C31.6987305,16.5053768 31.9574356,17.3894012 32.4748535,18.0119629 C32.9922715,18.6345246 33.7268833,18.9458008 34.6787109,18.9458008 C35.2099636,18.9458008 35.6858703,18.8641772 36.1064453,18.7009277 C36.5270203,18.5376782 36.9171531,18.2845069 37.2768555,17.9414062 L37.2768555,19.5268555 Z M47.4287109,14.2392578 L47.4287109,20 L45.8930664,20 L45.8930664,14.2392578 C45.8930664,13.4036417 45.7464207,12.78939 45.453125,12.3964844 C45.1598293,12.0035788 44.700524,11.8071289 44.0751953,11.8071289 C43.3613246,11.8071289 42.812095,12.0603002 42.4274902,12.5666504 C42.0428854,13.0730006 41.8505859,13.7993117 41.8505859,14.7456055 L41.8505859,20 L40.3232422,20 L40.3232422,7.08398438 L41.8505859,7.08398438 L41.8505859,12.0976562 C42.1217461,11.5664036 42.4897438,11.1638197 42.9545898,10.8898926 C43.4194359,10.6159654 43.9700489,10.4790039 44.6064453,10.4790039 C45.5527391,10.4790039 46.2596819,10.7902801 46.7272949,11.4128418 C47.1949079,12.0354035 47.4287109,12.9775328 47.4287109,14.2392578 Z M51.5625,10.7363281 L55.472168,10.7363281 L55.472168,18.8129883 L58.5019531,18.8129883 L58.5019531,20 L50.9150391,20 L50.9150391,18.8129883 L53.9448242,18.8129883 L53.9448242,11.9233398 L51.5625,11.9233398 L51.5625,10.7363281 Z M53.9448242,7.12548828 L55.472168,7.12548828 L55.472168,9.05126953 L53.9448242,9.05126953 L53.9448242,7.12548828 Z M60.0043945,10.703125 L61.5898438,10.703125 L64.2875977,18.5058594 L66.9936523,10.703125 L68.5791016,10.703125 L65.2753906,20 L63.3081055,20 L60.0043945,10.703125 Z M72.0322266,10.7363281 L75.9418945,10.7363281 L75.9418945,18.8129883 L78.9716797,18.8129883 L78.9716797,20 L71.3847656,20 L71.3847656,18.8129883 L74.4145508,18.8129883 L74.4145508,11.9233398 L72.0322266,11.9233398 L72.0322266,10.7363281 Z M74.4145508,7.12548828 L75.9418945,7.12548828 L75.9418945,9.05126953 L74.4145508,9.05126953 L74.4145508,7.12548828 Z M88.940918,14.5878906 L88.940918,15.3349609 L82.3251953,15.3349609 L82.3251953,15.3847656 C82.2809243,16.6520246 82.523028,17.5623345 83.0515137,18.1157227 C83.5799994,18.6691108 84.3256788,18.9458008 85.2885742,18.9458008 C85.7755558,18.9458008 86.2846653,18.8683276 86.815918,18.7133789 C87.3471706,18.5584302 87.914385,18.3232438 88.5175781,18.0078125 L88.5175781,19.5268555 C87.9365205,19.7648124 87.3762234,19.9432774 86.8366699,20.0622559 C86.2971164,20.1812343 85.7755559,20.2407227 85.2719727,20.2407227 C83.8276295,20.2407227 82.6987345,19.8077029 81.8852539,18.9416504 C81.0717733,18.0755979 80.6650391,16.8816808 80.6650391,15.3598633 C80.6650391,13.8767829 81.0634726,12.69255 81.8603516,11.8071289 C82.6572305,10.9217078 83.7197199,10.4790039 85.0478516,10.4790039 C86.2321023,10.4790039 87.1659308,10.8802043 87.8493652,11.6826172 C88.5327996,12.4850301 88.8966469,13.4534448 88.940918,14.5878906 Z M87.4135742,14.1396484 C87.3471676,13.4977181 87.1133646,12.9429548 86.7121582,12.4753418 C86.3109518,12.0077288 85.7340532,11.7739258 84.9814453,11.7739258 C84.245439,11.7739258 83.6394881,12.0174129 83.1635742,12.5043945 C82.6876604,12.9913761 82.4275718,13.5392222 82.3833008,14.1479492 L87.4135742,14.1396484 Z M99.4663086,12.6206055 C99.1398096,12.3660469 98.8077816,12.1806646 98.4702148,12.0644531 C98.1326481,11.9482416 97.7618835,11.8901367 97.3579102,11.8901367 C96.4060825,11.8901367 95.6783879,12.1889619 95.1748047,12.7866211 C94.6712214,13.3842803 94.4194336,14.2475529 94.4194336,15.3764648 L94.4194336,20 L92.8837891,20 L92.8837891,10.703125 L94.4194336,10.703125 L94.4194336,12.5209961 C94.6739922,11.8624642 95.0655084,11.357505 95.5939941,11.0061035 C96.1224799,10.654702 96.7491826,10.4790039 97.4741211,10.4790039 C97.8504251,10.4790039 98.2018213,10.5260412 98.5283203,10.6201172 C98.8548193,10.7141932 99.167479,10.8608388 99.4663086,11.0600586 L99.4663086,12.6206055 Z M105.210449,8.06347656 L105.210449,10.703125 L108.680176,10.703125 L108.680176,11.8901367 L105.210449,11.8901367 L105.210449,16.9370117 C105.210449,17.6232131 105.340493,18.1018867 105.600586,18.3730469 C105.860678,18.6442071 106.31445,18.7797852 106.961914,18.7797852 L108.680176,18.7797852 L108.680176,20 L106.8125,20 C105.666986,20 104.859052,19.7703473 104.388672,19.3110352 C103.918292,18.851723 103.683105,18.0603897 103.683105,16.9370117 L103.683105,11.8901367 L101.201172,11.8901367 L101.201172,10.703125 L103.683105,10.703125 L103.683105,8.06347656 L105.210449,8.06347656 Z M119.645508,14.5878906 L119.645508,15.3349609 L113.029785,15.3349609 L113.029785,15.3847656 C112.985514,16.6520246 113.227618,17.5623345 113.756104,18.1157227 C114.284589,18.6691108 115.030269,18.9458008 115.993164,18.9458008 C116.480146,18.9458008 116.989255,18.8683276 117.520508,18.7133789 C118.05176,18.5584302 118.618975,18.3232438 119.222168,18.0078125 L119.222168,19.5268555 C118.64111,19.7648124 118.080813,19.9432774 117.54126,20.0622559 C117.001706,20.1812343 116.480146,20.2407227 115.976562,20.2407227 C114.532219,20.2407227 113.403324,19.8077029 112.589844,18.9416504 C111.776363,18.0755979 111.369629,16.8816808 111.369629,15.3598633 C111.369629,13.8767829 111.768062,12.69255 112.564941,11.8071289 C113.36182,10.9217078 114.42431,10.4790039 115.752441,10.4790039 C116.936692,10.4790039 117.870521,10.8802043 118.553955,11.6826172 C119.237389,12.4850301 119.601237,13.4534448 119.645508,14.5878906 Z M118.118164,14.1396484 C118.051757,13.4977181 117.817954,12.9429548 117.416748,12.4753418 C117.015542,12.0077288 116.438643,11.7739258 115.686035,11.7739258 C114.950029,11.7739258 114.344078,12.0174129 113.868164,12.5043945 C113.39225,12.9913761 113.132162,13.5392222 113.087891,14.1479492 L118.118164,14.1396484 Z M130.170898,12.6206055 C129.844399,12.3660469 129.512371,12.1806646 129.174805,12.0644531 C128.837238,11.9482416 128.466473,11.8901367 128.0625,11.8901367 C127.110672,11.8901367 126.382978,12.1889619 125.879395,12.7866211 C125.375811,13.3842803 125.124023,14.2475529 125.124023,15.3764648 L125.124023,20 L123.588379,20 L123.588379,10.703125 L125.124023,10.703125 L125.124023,12.5209961 C125.378582,11.8624642 125.770098,11.357505 126.298584,11.0061035 C126.82707,10.654702 127.453772,10.4790039 128.178711,10.4790039 C128.555015,10.4790039 128.906411,10.5260412 129.23291,10.6201172 C129.559409,10.7141932 129.872069,10.8608388 130.170898,11.0600586 L130.170898,12.6206055 Z M144.116211,13.7495117 L144.116211,18.6220703 L146.100098,18.6220703 C147.074061,18.6220703 147.768553,18.451906 148.183594,18.1115723 C148.598635,17.7712385 148.806152,17.2109414 148.806152,16.4306641 C148.806152,15.401362 148.587567,14.6971861 148.150391,14.3181152 C147.713214,13.9390443 147.02979,13.7495117 146.100098,13.7495117 L144.116211,13.7495117 Z M144.116211,8.98486328 L144.116211,12.3881836 L146.066895,12.3881836 C146.874841,12.3881836 147.460041,12.2332372 147.82251,11.9233398 C148.184979,11.6134425 148.366211,11.2233096 148.366211,10.7529297 C148.366211,10.127601 148.187746,9.67659644 147.830811,9.39990234 C147.473875,9.12320825 146.885909,8.98486328 146.066895,8.98486328 L144.116211,8.98486328 Z M142.431152,7.60693359 L146.100098,7.60693359 C147.367357,7.60693359 148.344072,7.88085664 149.030273,8.42871094 C149.716475,8.97656524 150.05957,9.75129708 150.05957,10.7529297 C150.05957,11.2897162 149.878338,11.7766905 149.515869,12.2138672 C149.1534,12.6510439 148.609704,12.9249669 147.884766,13.0356445 C148.698246,13.1573899 149.336017,13.5046358 149.798096,14.0773926 C150.260175,14.6501493 150.491211,15.4899033 150.491211,16.5966797 C150.491211,17.7200577 150.123213,18.5681124 149.387207,19.1408691 C148.651201,19.7136259 147.555509,20 146.100098,20 L142.431152,20 L142.431152,7.60693359 Z M160.584961,14.5878906 L160.584961,15.3349609 L153.969238,15.3349609 L153.969238,15.3847656 C153.924967,16.6520246 154.167071,17.5623345 154.695557,18.1157227 C155.224042,18.6691108 155.969722,18.9458008 156.932617,18.9458008 C157.419599,18.9458008 157.928708,18.8683276 158.459961,18.7133789 C158.991214,18.5584302 159.558428,18.3232438 160.161621,18.0078125 L160.161621,19.5268555 C159.580564,19.7648124 159.020266,19.9432774 158.480713,20.0622559 C157.941159,20.1812343 157.419599,20.2407227 156.916016,20.2407227 C155.471672,20.2407227 154.342778,19.8077029 153.529297,18.9416504 C152.715816,18.0755979 152.309082,16.8816808 152.309082,15.3598633 C152.309082,13.8767829 152.707516,12.69255 153.504395,11.8071289 C154.301274,10.9217078 155.363763,10.4790039 156.691895,10.4790039 C157.876145,10.4790039 158.809974,10.8802043 159.493408,11.6826172 C160.176843,12.4850301 160.54069,13.4534448 160.584961,14.5878906 Z M159.057617,14.1396484 C158.991211,13.4977181 158.757408,12.9429548 158.356201,12.4753418 C157.954995,12.0077288 157.378096,11.7739258 156.625488,11.7739258 C155.889482,11.7739258 155.283531,12.0174129 154.807617,12.5043945 C154.331703,12.9913761 154.071615,13.5392222 154.027344,14.1479492 L159.057617,14.1396484 Z M164.145996,10.7363281 L168.055664,10.7363281 L168.055664,18.8129883 L171.085449,18.8129883 L171.085449,20 L163.498535,20 L163.498535,18.8129883 L166.52832,18.8129883 L166.52832,11.9233398 L164.145996,11.9233398 L164.145996,10.7363281 Z M166.52832,7.12548828 L168.055664,7.12548828 L168.055664,9.05126953 L166.52832,9.05126953 L166.52832,7.12548828 Z M176.854492,8.06347656 L176.854492,10.703125 L180.324219,10.703125 L180.324219,11.8901367 L176.854492,11.8901367 L176.854492,16.9370117 C176.854492,17.6232131 176.984536,18.1018867 177.244629,18.3730469 C177.504721,18.6442071 177.958493,18.7797852 178.605957,18.7797852 L180.324219,18.7797852 L180.324219,20 L178.456543,20 C177.311029,20 176.503095,19.7703473 176.032715,19.3110352 C175.562335,18.851723 175.327148,18.0603897 175.327148,16.9370117 L175.327148,11.8901367 L172.845215,11.8901367 L172.845215,10.703125 L175.327148,10.703125 L175.327148,8.06347656 L176.854492,8.06347656 Z M191.580078,12.6206055 C191.253579,12.3660469 190.921551,12.1806646 190.583984,12.0644531 C190.246418,11.9482416 189.875653,11.8901367 189.47168,11.8901367 C188.519852,11.8901367 187.792157,12.1889619 187.288574,12.7866211 C186.784991,13.3842803 186.533203,14.2475529 186.533203,15.3764648 L186.533203,20 L184.997559,20 L184.997559,10.703125 L186.533203,10.703125 L186.533203,12.5209961 C186.787762,11.8624642 187.179278,11.357505 187.707764,11.0061035 C188.236249,10.654702 188.862952,10.4790039 189.587891,10.4790039 C189.964195,10.4790039 190.315591,10.5260412 190.64209,10.6201172 C190.968589,10.7141932 191.281249,10.8608388 191.580078,11.0600586 L191.580078,12.6206055 Z M199.482422,15.3266602 L197.54834,15.3266602 C196.657385,15.3266602 195.986412,15.48299 195.5354,15.7956543 C195.084389,16.1083186 194.858887,16.5745412 194.858887,17.1943359 C194.858887,17.753258 195.027668,18.1876612 195.365234,18.4975586 C195.702801,18.807456 196.170407,18.9624023 196.768066,18.9624023 C197.609216,18.9624023 198.270505,18.6704945 198.751953,18.0866699 C199.233401,17.5028454 199.476888,16.6962942 199.482422,15.6669922 L199.482422,15.3266602 Z M201.018066,14.6958008 L201.018066,20 L199.482422,20 L199.482422,18.6220703 C199.155923,19.1754585 198.745038,19.5835762 198.249756,19.8464355 C197.754473,20.1092949 197.152673,20.2407227 196.444336,20.2407227 C195.498042,20.2407227 194.742679,19.9737169 194.178223,19.4396973 C193.613767,18.9056777 193.331543,18.1904342 193.331543,17.2939453 C193.331543,16.2591094 193.678789,15.47331 194.373291,14.9365234 C195.067793,14.3997369 196.087396,14.1313477 197.432129,14.1313477 L199.482422,14.1313477 L199.482422,13.890625 C199.476888,13.1490848 199.288739,12.6109229 198.917969,12.276123 C198.547199,11.9413232 197.955082,11.7739258 197.141602,11.7739258 C196.621417,11.7739258 196.095706,11.8486321 195.564453,11.9980469 C195.0332,12.1474617 194.51579,12.3660467 194.012207,12.6538086 L194.012207,11.1264648 C194.576663,10.9106435 195.117592,10.7487798 195.63501,10.6408691 C196.152428,10.5329584 196.65462,10.4790039 197.141602,10.4790039 C197.910811,10.4790039 198.56795,10.5924468 199.113037,10.8193359 C199.658124,11.0462251 200.099445,11.3865537 200.437012,11.840332 C200.647299,12.1170261 200.796712,12.4587382 200.885254,12.8654785 C200.973796,13.2722188 201.018066,13.8823202 201.018066,14.6958008 Z M209.584473,15.2768555 C209.584473,14.1313419 209.397707,13.2611521 209.02417,12.6662598 C208.650633,12.0713675 208.106937,11.7739258 207.393066,11.7739258 C206.645992,11.7739258 206.076011,12.0713675 205.683105,12.6662598 C205.2902,13.2611521 205.09375,14.1313419 205.09375,15.2768555 C205.09375,16.422369 205.291583,17.2953258 205.687256,17.895752 C206.082928,18.4961781 206.65706,18.7963867 207.409668,18.7963867 C208.112471,18.7963867 208.650633,18.4947947 209.02417,17.8916016 C209.397707,17.2884084 209.584473,16.4168351 209.584473,15.2768555 Z M211.111816,19.4023438 C211.111816,20.796882 210.782555,21.8538375 210.124023,22.5732422 C209.465491,23.2926468 208.497077,23.6523438 207.21875,23.6523438 C206.798175,23.6523438 206.358238,23.6136072 205.898926,23.5361328 C205.439614,23.4586585 204.980308,23.3452156 204.520996,23.1958008 L204.520996,21.6850586 C205.063317,21.9396172 205.555825,22.1277663 205.998535,22.2495117 C206.441246,22.3712571 206.84798,22.4321289 207.21875,22.4321289 C208.043298,22.4321289 208.643716,22.2080101 209.02002,21.7597656 C209.396323,21.3115212 209.584473,20.600428 209.584473,19.6264648 L209.584473,18.5224609 C209.340982,19.0426458 209.008954,19.4300117 208.588379,19.6845703 C208.167804,19.9391289 207.655927,20.0664062 207.052734,20.0664062 C205.968094,20.0664062 205.102054,19.632003 204.45459,18.7631836 C203.807126,17.8943641 203.483398,16.7322664 203.483398,15.2768555 C203.483398,13.8159107 203.807126,12.651046 204.45459,11.7822266 C205.102054,10.9134071 205.968094,10.4790039 207.052734,10.4790039 C207.650394,10.4790039 208.156736,10.5979806 208.571777,10.8359375 C208.986818,11.0738944 209.32438,11.441892 209.584473,11.9399414 L209.584473,10.7363281 L211.111816,10.7363281 L211.111816,19.4023438 Z" id="archivierterBeitrag" fill="#F6E6B8" fill-rule="nonzero"></path>
        </g>
    </g>
</svg>