<?xml version="1.0" encoding="UTF-8"?>
<svg width="150px" height="150px" viewBox="0 0 150 150" version="1.1" xmlns="http://www.w3.org/2000/svg" xmlns:xlink="http://www.w3.org/1999/xlink">
    <!-- Generator: Sketch 55.1 (78136) - https://sketchapp.com -->
    <title>Group</title>
    <desc>Created with Sketch.</desc>

    <g id="bewertung-plus-gelb" stroke="#DFAC20" fill="none" stroke-width="10">
        <rect id="Rectangle-1" x="5" y="5" width="140" height="140" rx="30"></rect>
        <path d="M75,24.8076923 L74.999985,127.5" id="Line" stroke-linecap="square"></path>
        <path d="M24.8076923,75 L127.473776,75" id="Line" stroke-linecap="square"></path>
    </g>
    <view id="vote-up-inactive" viewBox="0 0 150 150"></view>

    <g id="bewertung-plus-gruen" transform="translate(0.000000, 151.000000)">
        <rect id="Rectangle-1" fill="#8DB243" x="0" y="0" width="150" height="150" rx="30"></rect>
        <path d="M75,31.5 L74.999987,120.5" id="Line" stroke="#EBF5D7" stroke-width="10" stroke-linecap="square"></path>
        <path d="M31.5,75 L120.477273,75" id="Line" stroke="#EBF5D7" stroke-width="10" stroke-linecap="square"></path>
    </g>
    <view id="vote-up-active" viewBox="0 151 150 150"></view>

    <g id="bewertung-plus-grau" stroke="#BFBFBF" stroke-width="10" transform="translate(0.000000, 302.000000)" fill="none">
        <path d="M120.005775,5 L29.9922825,5 C16.1887951,5 5,16.1890313 5,29.9942248 L5,120.005775 C5,133.810408 16.1891038,145 29.9942248,145 L120.005775,145 C133.810408,145 145,133.810896 145,120.005775 L145,29.9942248 C145,16.1943705 133.802798,5 120.005775,5 Z" id="Rectangle-1"></path>
        <path d="M75,24.8076923 L74.999985,127.5" id="Line" stroke-linecap="square"></path>
        <path d="M24.8076923,75 L127.473776,75" id="Line" stroke-linecap="square"></path>
    </g>
    <view id="vote-up-disabled" viewBox="0 302 150 150"></view>

    <g id="bewertung-minus-gelb" stroke="#DFAC20" stroke-width="10" transform="translate(151.000000, 0.000000)" fill="none">
        <rect id="Rectangle-1" x="5" y="5" width="140" height="140" rx="30"></rect>
        <path d="M24.8076923,75 L127.473776,75" id="Line" stroke-linecap="square"></path>
    </g>
    <view id="vote-down-inactive" viewBox="151 0 150 150"></view>

    <g id="bewertung-minus-rot" transform="translate(151.000000, 151.000000)">
        <rect id="Rectangle-1" fill="#C32E04" x="0" y="0" width="150" height="150" rx="30"></rect>
        <path d="M31.5,75 L120.477273,75" id="Line" stroke="#FFEBE6" stroke-width="10" stroke-linecap="square"></path>
    </g>
    <view id="vote-down-active" viewBox="151 151 150 150"></view>

    <g id="bewertung-minus-grau" stroke="#BFBFBF" stroke-width="10" transform="translate(151.000000, 302.000000)" fill="none">
        <rect id="Rectangle-1" x="5" y="5" width="140" height="140" rx="30"></rect>
        <path d="M24.8076923,75 L127.473776,75" id="Line" stroke-linecap="square"></path>
    </g>
    <view id="vote-down-disabled" viewBox="151 302 150 150"></view>

    <g id="bewertung-ok-gelb" transform="translate(302.000000, 0.000000)" fill="none">
        <rect id="Rectangle-1" fill="#DFAC20" x="0" y="0" width="150" height="150" rx="30"></rect>
        <g id="Haken" transform="translate(31.000000, 39.000000)" stroke="#FFFBF0" stroke-linecap="square" stroke-width="15">
            <path d="M0.5,43.5 L23.5,65.5" id="Line"></path>
            <path d="M23.5,65.5 L88.5,0.5" id="Line"></path>
        </g>
    </g>
    <view id="accept-inactive" viewBox="302 0 150 150"></view>

    <g id="bewertung-ok-gruen" transform="translate(302.000000, 151.000000)">
        <rect id="Rectangle-1" fill="#8DB243" x="0" y="0" width="150" height="150" rx="30"></rect>
        <g id="Haken" transform="translate(31.000000, 41.000000)" stroke="#EBF5D7" stroke-linecap="square" stroke-width="15">
            <path d="M0.5,43.5 L23.5,65.5" id="Line"></path>
            <path d="M23.5,65.5 L88.5,0.5" id="Line"></path>
        </g>
    </g>
    <view id="accept-active" viewBox="302 151 150 150"></view>

    <g id="bewertung-ok-grau" transform="translate(302.000000, 302.000000)" fill="none">
        <rect id="Rectangle-1" fill="#BFBFBF" x="0" y="0" width="150" height="150" rx="30"></rect>
        <g id="Haken" transform="translate(31.000000, 40.000000)" stroke="#F1F3F4" stroke-linecap="square" stroke-width="15">
            <path d="M0.5,43.5 L23.5,65.5" id="Line"></path>
            <path d="M23.5,65.5 L88.5,0.5" id="Line"></path>
        </g>
    </g>
    <view id="accept-disabled" viewBox="302 302 150 150"></view>

    <g id="bewertung-info-blaugrau" fill="#C4D4DA" transform="translate(453.000000, 0.000000)">
        <path d="M65.4086538,126.310096 L88.6658654,126.310096 C93.6418518,126.310096 97.1754703,127.211529 99.2668269,129.014423 C101.358184,130.817317 102.403846,133.810075 102.403846,137.992788 C102.403846,142.247617 101.340155,145.312491 99.2127404,147.1875 C97.0853259,149.062509 93.5697361,150 88.6658654,150 L15.5408654,150 C10.6369947,150 7.12140487,149.062509 4.99399038,147.1875 C2.8665759,145.312491 1.80288462,142.247617 1.80288462,137.992788 C1.80288462,133.810075 2.83051857,130.817317 4.88581731,129.014423 C6.94111605,127.211529 10.4927632,126.310096 15.5408654,126.310096 L38.7980769,126.310096 L38.7980769,73.7379808 L26.5745192,73.7379808 C21.7427643,73.7379808 18.2812605,72.8185188 16.1899038,70.9795673 C14.0985472,69.1406158 13.0528846,66.0937713 13.0528846,61.8389423 C13.0528846,57.5841133 14.0624899,54.5552975 16.0817308,52.7524038 C18.1009716,50.9495102 21.5985328,50.0480769 26.5745192,50.0480769 L59.1346154,50.0480769 C61.1538562,50.0480769 62.7043215,50.4627362 63.7860577,51.2920673 C64.8677939,52.1213984 65.4086538,53.2572043 65.4086538,54.6995192 L65.4086538,126.310096 Z" id="Path-1"></path>
        <path d="M49.8317308,1.15384615 C55.0961802,1.15384615 58.5937413,2.16345144 60.3245192,4.18269231 C62.0552971,6.20193317 62.9206731,11.0336156 62.9206731,18.6778846 C62.9206731,26.0336906 62.1454404,30.5949431 60.5949519,32.3617788 C59.0444634,34.1286146 55.3846442,35.0120192 49.6153846,35.0120192 C43.9903565,35.0120192 40.3665947,34.1827006 38.7439904,32.5240385 C37.1213861,30.8653763 36.3100962,27.5481018 36.3100962,22.5721154 C36.3100962,13.3413 37.1394148,7.46395493 38.7980769,4.93990385 C40.4567391,2.41585276 44.1345869,1.15384615 49.8317308,1.15384615 L49.8317308,1.15384615 Z" id="Path"></path>
    </g>
    <view id="info-standard" viewBox="475 0 104 150"></view>

    <g id="bewertung-info-blau" fill="#3481CD" transform="translate(453.000000, 151.000000)">
        <path d="M65.4086538,126.310096 L88.6658654,126.310096 C93.6418518,126.310096 97.1754703,127.211529 99.2668269,129.014423 C101.358184,130.817317 102.403846,133.810075 102.403846,137.992788 C102.403846,142.247617 101.340155,145.312491 99.2127404,147.1875 C97.0853259,149.062509 93.5697361,150 88.6658654,150 L15.5408654,150 C10.6369947,150 7.12140487,149.062509 4.99399038,147.1875 C2.8665759,145.312491 1.80288462,142.247617 1.80288462,137.992788 C1.80288462,133.810075 2.83051857,130.817317 4.88581731,129.014423 C6.94111605,127.211529 10.4927632,126.310096 15.5408654,126.310096 L38.7980769,126.310096 L38.7980769,73.7379808 L26.5745192,73.7379808 C21.7427643,73.7379808 18.2812605,72.8185188 16.1899038,70.9795673 C14.0985472,69.1406158 13.0528846,66.0937713 13.0528846,61.8389423 C13.0528846,57.5841133 14.0624899,54.5552975 16.0817308,52.7524038 C18.1009716,50.9495102 21.5985328,50.0480769 26.5745192,50.0480769 L59.1346154,50.0480769 C61.1538562,50.0480769 62.7043215,50.4627362 63.7860577,51.2920673 C64.8677939,52.1213984 65.4086538,53.2572043 65.4086538,54.6995192 L65.4086538,126.310096 Z" id="Path-1"></path>
        <path d="M49.8317308,1.15384615 C55.0961802,1.15384615 58.5937413,2.16345144 60.3245192,4.18269231 C62.0552971,6.20193317 62.9206731,11.0336156 62.9206731,18.6778846 C62.9206731,26.0336906 62.1454404,30.5949431 60.5949519,32.3617788 C59.0444634,34.1286146 55.3846442,35.0120192 49.6153846,35.0120192 C43.9903565,35.0120192 40.3665947,34.1827006 38.7439904,32.5240385 C37.1213861,30.8653763 36.3100962,27.5481018 36.3100962,22.5721154 C36.3100962,13.3413 37.1394148,7.46395493 38.7980769,4.93990385 C40.4567391,2.41585276 44.1345869,1.15384615 49.8317308,1.15384615 L49.8317308,1.15384615 Z" id="Path"></path>
    </g>
    <view id="info-blue" viewBox="475 151 104 150"></view>

    <g id="bewertung-info-rot" fill="#990909" transform="translate(453.000000, 302.000000)">
        <path d="M65.4086538,126.310096 L88.6658654,126.310096 C93.6418518,126.310096 97.1754703,127.211529 99.2668269,129.014423 C101.358184,130.817317 102.403846,133.810075 102.403846,137.992788 C102.403846,142.247617 101.340155,145.312491 99.2127404,147.1875 C97.0853259,149.062509 93.5697361,150 88.6658654,150 L15.5408654,150 C10.6369947,150 7.12140487,149.062509 4.99399038,147.1875 C2.8665759,145.312491 1.80288462,142.247617 1.80288462,137.992788 C1.80288462,133.810075 2.83051857,130.817317 4.88581731,129.014423 C6.94111605,127.211529 10.4927632,126.310096 15.5408654,126.310096 L38.7980769,126.310096 L38.7980769,73.7379808 L26.5745192,73.7379808 C21.7427643,73.7379808 18.2812605,72.8185188 16.1899038,70.9795673 C14.0985472,69.1406158 13.0528846,66.0937713 13.0528846,61.8389423 C13.0528846,57.5841133 14.0624899,54.5552975 16.0817308,52.7524038 C18.1009716,50.9495102 21.5985328,50.0480769 26.5745192,50.0480769 L59.1346154,50.0480769 C61.1538562,50.0480769 62.7043215,50.4627362 63.7860577,51.2920673 C64.8677939,52.1213984 65.4086538,53.2572043 65.4086538,54.6995192 L65.4086538,126.310096 Z" id="Path-1"></path>
        <path d="M49.8317308,1.15384615 C55.0961802,1.15384615 58.5937413,2.16345144 60.3245192,4.18269231 C62.0552971,6.20193317 62.9206731,11.0336156 62.9206731,18.6778846 C62.9206731,26.0336906 62.1454404,30.5949431 60.5949519,32.3617788 C59.0444634,34.1286146 55.3846442,35.0120192 49.6153846,35.0120192 C43.9903565,35.0120192 40.3665947,34.1827006 38.7439904,32.5240385 C37.1213861,30.8653763 36.3100962,27.5481018 36.3100962,22.5721154 C36.3100962,13.3413 37.1394148,7.46395493 38.7980769,4.93990385 C40.4567391,2.41585276 44.1345869,1.15384615 49.8317308,1.15384615 L49.8317308,1.15384615 Z" id="Path"></path>
    </g>
    <view id="info-red" viewBox="475 302 104 150"></view>
</svg>