<svg width="2048" height="1792" viewBox="0 0 2048 1792" xmlns="http://www.w3.org/2000/svg">
  <g id="stats-icon">
    <path d="M-0.001,13 L21.999,13 L21.999,14 L-0.001,14 z" fill="#BFBFBF"/>
    <path d="M17,-0.001 L20,-0.001 L20,12.999 L17,12.999 z" fill="#8CB433"/>
    <path d="M12,4 L15,4 L15,13 L12,13 z" fill="#5C7FDD"/>
    <path d="M7,2 L10,2 L10,13 L7,13 z" fill="#E7C248"/>
    <path d="M2,7 L5,7 L5,13 L2,13 z" fill="#C52D00"/>
  </g>

  <path id="svg-check-mark" d="M1671 566q0 40-28 68l-724 724-136 136q-28 28-68 28t-68-28l-136-136-362-362q-28-28-28-68t28-68l136-136q28-28 68-28t68 28l294 295 656-657q28-28 68-28t68 28l136 136q28 28 28 68z"/>
  <path id="svg-remove" d="M1490 1322q0 40-28 68l-136 136q-28 28-68 28t-68-28l-294-294-294 294q-28 28-68 28t-68-28l-136-136q-28-28-28-68t28-68l294-294-294-294q-28-28-28-68t28-68l136-136q28-28 68-28t68 28l294 294 294-294q28-28 68-28t68 28l136 136q28 28 28 68t-28 68l-294 294 294 294q28 28 28 68z"/>
  <path id="svg-folder-open" d="M1815 952q0 31-31 66l-336 396q-43 51-120.5 86.5t-143.5 35.5h-1088q-34 0-60.5-13t-26.5-43q0-31 31-66l336-396q43-51 120.5-86.5t143.5-35.5h1088q34 0 60.5 13t26.5 43zm-343-344v160h-832q-94 0-197 47.5t-164 119.5l-337 396-5 6q0-4-.5-12.5t-.5-12.5v-960q0-92 66-158t158-66h320q92 0 158 66t66 158v32h544q92 0 158 66t66 158z"/>
  <path id="svg-folder-closed" d="M1728 608v704q0 92-66 158t-158 66h-1216q-92 0-158-66t-66-158v-960q0-92 66-158t158-66h320q92 0 158 66t66 158v32h672q92 0 158 66t66 158z"/>
  <path id="svg-recycle" d="M836 1169l-15 368-2 22-420-29q-36-3-67-31.5t-47-65.5q-11-27-14.5-55t4-65 12-55 21.5-64 19-53q78 12 509 28zm-387-586l180 379-147-92q-63 72-111.5 144.5t-72.5 125-39.5 94.5-18.5 63l-4 21-190-357q-17-26-18-56t6-47l8-18q35-63 114-188l-140-86zm1231 517l-188 359q-12 29-36.5 46.5t-43.5 20.5l-18 4q-71 7-219 12l8 164-230-367 211-362 7 173q170 16 283 5t170-33zm-785-924q-47 63-265 435l-317-187-19-12 225-356q20-31 60-45t80-10q24 2 48.5 12t42 21 41.5 33 36 34.5 36 39.5 32 35zm655 307l212 363q18 37 12.5 76t-27.5 74q-13 20-33 37t-38 28-48.5 22-47 16-51.5 14-46 12q-34-72-265-436l313-195zm-143-226l142-83-220 373-419-20 151-86q-34-89-75-166t-75.5-123.5-64.5-80-47-46.5l-17-13 405 1q31-3 58 10.5t39 28.5l11 15q39 61 112 190z"/>
  <path id="svg-subscribe" d="M1664 960q-152-236-381-353 61 104 61 225 0 185-131.5 316.5t-316.5 131.5-316.5-131.5-131.5-316.5q0-121 61-225-229 117-381 353 133 205 333.5 326.5t434.5 121.5 434.5-121.5 333.5-326.5zm-720-384q0-20-14-34t-34-14q-125 0-214.5 89.5t-89.5 214.5q0 20 14 34t34 14 34-14 14-34q0-86 61-147t147-61q20 0 34-14t14-34zm848 384q0 34-20 69-140 230-376.5 368.5t-499.5 138.5-499.5-139-376.5-368q-20-35-20-69t20-69q140-229 376.5-368t499.5-139 499.5 139 376.5 368q20 35 20 69z"/>
  <path id="svg-unsubscribe" d="M555 1335l78-141q-87-63-136-159t-49-203q0-121 61-225-229 117-381 353 167 258 427 375zm389-759q0-20-14-34t-34-14q-125 0-214.5 89.5t-89.5 214.5q0 20 14 34t34 14 34-14 14-34q0-86 61-147t147-61q20 0 34-14t14-34zm363-191q0 7-1 9-106 189-316 567t-315 566l-49 89q-10 16-28 16-12 0-134-70-16-10-16-28 0-12 44-87-143-65-263.5-173t-208.5-245q-20-31-20-69t20-69q153-235 380-371t496-136q89 0 180 17l54-97q10-16 28-16 5 0 18 6t31 15.5 33 18.5 31.5 18.5 19.5 11.5q16 10 16 27zm37 447q0 139-79 253.5t-209 164.5l280-502q8 45 8 84zm448 128q0 35-20 69-39 64-109 145-150 172-347.5 267t-419.5 95l74-132q212-18 392.5-137t301.5-307q-115-179-282-294l63-112q95 64 182.5 153t144.5 184q20 34 20 69z"/>
  <path id="svg-mark-interesting" d="M1201 1004l306-297-422-62-189-382-189 382-422 62 306 297-73 421 378-199 377 199zm527-357q0 22-26 48l-363 354 86 500q1 7 1 20 0 50-41 50-19 0-40-12l-449-236-449 236q-22 12-40 12-21 0-31.5-14.5t-10.5-35.5q0-6 2-20l86-500-364-354q-25-27-25-48 0-37 56-46l502-73 225-455q19-41 49-41t49 41l225 455 502 73q56 9 56 46z"/>
  <path id="svg-mark-boring" d="M1728 647q0 22-26 48l-363 354 86 500q1 7 1 20 0 21-10.5 35.5t-30.5 14.5q-19 0-40-12l-449-236-449 236q-22 12-40 12-21 0-31.5-14.5t-10.5-35.5q0-6 2-20l86-500-364-354q-25-27-25-48 0-37 56-46l502-73 225-455q19-41 49-41t49 41l225 455 502 73q56 9 56 46z"/>
  <path id="has-interesting" d="M1250 957l257-250-356-52-66-10-30-60-159-322v963l59 31 318 168-60-355-12-66zm452-262l-363 354 86 500q5 33-6 51.5t-34 18.5q-17 0-40-12l-449-236-449 236q-23 12-40 12-23 0-34-18.5t-6-51.5l86-500-364-354q-32-32-23-59.5t54-34.5l502-73 225-455q20-41 49-41 28 0 49 41l225 455 502 73q45 7 54 34.5t-24 59.5z"/>
  <path id="svg-sticky" d="M800 864v-448q0-14-9-23t-23-9-23 9-9 23v448q0 14 9 23t23 9 23-9 9-23zm672 352q0 26-19 45t-45 19h-429l-51 483q-2 12-10.5 20.5t-20.5 8.5h-1q-27 0-32-27l-76-485h-404q-26 0-45-19t-19-45q0-123 78.5-221.5t177.5-98.5v-512q-52 0-90-38t-38-90 38-90 90-38h640q52 0 90 38t38 90-38 90-90 38v512q99 0 177.5 98.5t78.5 221.5z"/>
  <path id="svg-no-archive" d="M1344 864q0-14-9-23l-352-352q-9-9-23-9t-23 9l-351 351q-10 12-10 24 0 14 9 23t23 9h224v352q0 13 9.5 22.5t22.5 9.5h192q13 0 22.5-9.5t9.5-22.5v-352h224q13 0 22.5-9.5t9.5-22.5zm640 288q0 159-112.5 271.5t-271.5 112.5h-1088q-185 0-316.5-131.5t-131.5-316.5q0-130 70-240t188-165q-2-30-2-43 0-212 150-362t362-150q156 0 285.5 87t188.5 231q71-62 166-62 106 0 181 75t75 181q0 76-41 138 130 31 213.5 135.5t83.5 238.5z"/>

  <path id="svg-delete" d="M704 1376v-704q0-14-9-23t-23-9h-64q-14 0-23 9t-9 23v704q0 14 9 23t23 9h64q14 0 23-9t9-23zm256 0v-704q0-14-9-23t-23-9h-64q-14 0-23 9t-9 23v704q0 14 9 23t23 9h64q14 0 23-9t9-23zm256 0v-704q0-14-9-23t-23-9h-64q-14 0-23 9t-9 23v704q0 14 9 23t23 9h64q14 0 23-9t9-23zm-544-992h448l-48-117q-7-9-17-11h-317q-10 2-17 11zm928 32v64q0 14-9 23t-23 9h-96v948q0 83-47 143.5t-113 60.5h-832q-66 0-113-58.5t-47-141.5v-952h-96q-14 0-23-9t-9-23v-64q0-14 9-23t23-9h309l70-167q15-37 54-63t79-26h320q40 0 79 26t54 63l70 167h309q14 0 23 9t9 23z"/>
  <path id="svg-restore" d="M1671 566q0 40-28 68l-724 724-136 136q-28 28-68 28t-68-28l-136-136-362-362q-28-28-28-68t28-68l136-136q28-28 68-28t68 28l294 295 656-657q28-28 68-28t68 28l136 136q28 28 28 68z"/>
  <path id="no-answer" d="M1728 576v256q0 26-19 45t-45 19h-64q-26 0-45-19t-19-45v-256q0-106-75-181t-181-75-181 75-75 181v192h96q40 0 68 28t28 68v576q0 40-28 68t-68 28h-960q-40 0-68-28t-28-68v-576q0-40 28-68t68-28h672v-192q0-185 131.5-316.5t316.5-131.5 316.5 131.5 131.5 316.5z"/>
  <path id="do-answer" d="M640 768h512v-192q0-106-75-181t-181-75-181 75-75 181v192zm832 96v576q0 40-28 68t-68 28h-960q-40 0-68-28t-28-68v-576q0-40 28-68t68-28h32v-192q0-184 132-316t316-132 316 132 132 316v192h32q40 0 68 28t28 68z"/>
  <path id="svg-do-archive" d="M1344 928q0-14-9-23t-23-9h-224v-352q0-13-9.5-22.5t-22.5-9.5h-192q-13 0-22.5 9.5t-9.5 22.5v352h-224q-13 0-22.5 9.5t-9.5 22.5q0 14 9 23l352 352q9 9 23 9t23-9l351-351q10-12 10-24zm640 224q0 159-112.5 271.5t-271.5 112.5h-1088q-185 0-316.5-131.5t-131.5-316.5q0-130 70-240t188-165q-2-30-2-43 0-212 150-362t362-150q156 0 285.5 87t188.5 231q71-62 166-62 106 0 181 75t75 181q0 76-41 138 130 31 213.5 135.5t83.5 238.5z"/>
  <path id="svg-move-thread" d="M1792 896q0 26-19 45l-256 256q-19 19-45 19t-45-19-19-45v-128h-384v384h128q26 0 45 19t19 45-19 45l-256 256q-19 19-45 19t-45-19l-256-256q-19-19-19-45t19-45 45-19h128v-384h-384v128q0 26-19 45t-45 19-45-19l-256-256q-19-19-19-45t19-45l256-256q19-19 45-19t45 19 19 45v128h384v-384h-128q-26 0-45-19t-19-45 19-45l256-256q19-19 45-19t45 19l256 256q19 19 19 45t-19 45-45 19h-128v384h384v-128q0-26 19-45t45-19 45 19l256 256q19 19 19 45z"/>
  <path id="svg-split-thread" d="M672 1472q0-40-28-68t-68-28-68 28-28 68 28 68 68 28 68-28 28-68zm0-1152q0-40-28-68t-68-28-68 28-28 68 28 68 68 28 68-28 28-68zm640 128q0-40-28-68t-68-28-68 28-28 68 28 68 68 28 68-28 28-68zm96 0q0 52-26 96.5t-70 69.5q-2 287-226 414-67 38-203 81-128 40-169.5 71t-41.5 100v26q44 25 70 69.5t26 96.5q0 80-56 136t-136 56-136-56-56-136q0-52 26-96.5t70-69.5v-820q-44-25-70-69.5t-26-96.5q0-80 56-136t136-56 136 56 56 136q0 52-26 96.5t-70 69.5v497q54-26 154-57 55-17 87.5-29.5t70.5-31 59-39.5 40.5-51 28-69.5 8.5-91.5q-44-25-70-69.5t-26-96.5q0-80 56-136t136-56 136 56 56 136z"/>

  <path id="svg-new" d="M912 1696q0-16-16-16-59 0-101.5-42.5t-42.5-101.5q0-16-16-16t-16 16q0 73 51.5 124.5t124.5 51.5q16 0 16-16zm816-288q0 52-38 90t-90 38h-448q0 106-75 181t-181 75-181-75-75-181h-448q-52 0-90-38t-38-90q50-42 91-88t85-119.5 74.5-158.5 50-206 19.5-260q0-152 117-282.5t307-158.5q-8-19-8-39 0-40 28-68t68-28 68 28 28 68q0 20-8 39 190 28 307 158.5t117 282.5q0 139 19.5 260t50 206 74.5 158.5 85 119.5 91 88z"/>

  <path id="svg-link" d="M1520 1216q0-40-28-68l-208-208q-28-28-68-28-42 0-72 32 3 3 19 18.5t21.5 21.5 15 19 13 25.5 3.5 27.5q0 40-28 68t-68 28q-15 0-27.5-3.5t-25.5-13-19-15-21.5-21.5-18.5-19q-33 31-33 73 0 40 28 68l206 207q27 27 68 27 40 0 68-26l147-146q28-28 28-67zm-703-705q0-40-28-68l-206-207q-28-28-68-28-39 0-68 27l-147 146q-28 28-28 67 0 40 28 68l208 208q27 27 68 27 42 0 72-31-3-3-19-18.5t-21.5-21.5-15-19-13-25.5-3.5-27.5q0-40 28-68t68-28q15 0 27.5 3.5t25.5 13 19 15 21.5 21.5 18.5 19q33-31 33-73zm895 705q0 120-85 203l-147 146q-83 83-203 83-121 0-204-85l-206-207q-83-83-83-203 0-123 88-209l-88-88q-86 88-208 88-120 0-204-84l-208-208q-84-84-84-204t85-203l147-146q83-83 203-83 121 0 204 85l206 207q83 83 83 203 0 123-88 209l88 88q86-88 208-88 120 0 204 84l208 208q84 84 84 204z"/>
  <path id="svg-email" d="M1664 1504v-768q-32 36-69 66-268 206-426 338-51 43-83 67t-86.5 48.5-102.5 24.5h-2q-48 0-102.5-24.5t-86.5-48.5-83-67q-158-132-426-338-37-30-69-66v768q0 13 9.5 22.5t22.5 9.5h1472q13 0 22.5-9.5t9.5-22.5zm0-1051v-24.5l-.5-13-3-12.5-5.5-9-9-7.5-14-2.5h-1472q-13 0-22.5 9.5t-9.5 22.5q0 168 147 284 193 152 401 317 6 5 35 29.5t46 37.5 44.5 31.5 50.5 27.5 43 9h2q20 0 43-9t50.5-27.5 44.5-31.5 46-37.5 35-29.5q208-165 401-317 54-43 100.5-115.5t46.5-131.5zm128-37v1088q0 66-47 113t-113 47h-1472q-66 0-113-47t-47-113v-1088q0-66 47-113t113-47h1472q66 0 113 47t47 113z"/>
</svg>