<?xml version="1.0" encoding="UTF-8"?>
<svg width="595px" height="93px" viewBox="0 0 595 93" version="1.1" xmlns="http://www.w3.org/2000/svg" xmlns:xlink="http://www.w3.org/1999/xlink">
    <!-- Generator: Sketch 57.1 (83088) - https://sketch.com -->
    <title>Group</title>
    <desc>Created with Sketch.</desc>
    <g id="Page-1" stroke="none" stroke-width="1" fill="none" fill-rule="evenodd">
        <g id="Group" transform="translate(0.926000, 0.000000)" fill-rule="nonzero">
            <g id="Termitel-Logo" transform="translate(148.074000, 0.000000)">
                <polygon id="Shape" fill="#000000" points="62.086 21.096 62.086 12.846 0.996 12.846 0.996 21.096 26.447 21.096 26.447 85.918 36.521 85.918 36.521 21.096"></polygon>
                <path d="M88.44,79.578 C82.749,79.719 78.504,78.747 75.709,76.663 C72.913,74.579 71.307,70.529 70.891,64.524 L96.814,64.524 C101.434,64.491 104.822,63.209 106.979,60.675 C109.136,58.142 110.176,54.555 110.1,49.913 C110.155,44.344 108.27,40.147 104.444,37.323 C100.618,34.499 94.52,33.084 86.147,33.077 C77.2,32.933 70.671,34.887 66.559,38.937 C62.446,42.989 60.418,50.001 60.473,59.976 C60.382,69.778 62.425,76.791 66.602,81.011 C70.778,85.235 77.638,87.293 87.179,87.189 C90.564,87.196 94.318,86.971 98.444,86.517 C102.57,86.059 106.036,85.334 108.841,84.333 L107.811,78.302 C104.873,78.683 101.674,78.986 98.216,79.219 C94.757,79.452 91.499,79.57 88.44,79.578 L88.44,79.578 L88.44,79.578 Z M86.606,40.69 C91.538,40.664 95.065,41.379 97.187,42.836 C99.309,44.294 100.37,46.652 100.37,49.912 C100.432,51.899 100.05,53.649 99.224,55.159 C98.398,56.669 96.753,57.465 94.292,57.544 L70.663,57.544 C70.755,51.137 72.006,46.698 74.419,44.227 C76.832,41.757 80.894,40.578 86.606,40.69 L86.606,40.69 L86.606,40.69 Z" id="Shape" fill="#000000"></path>
                <path d="M159.66,33.078 L157.137,33.078 C153.335,33.1 149.418,33.929 145.386,35.564 C141.356,37.198 137.323,39.507 133.293,42.492 L132.263,34.349 L124.707,34.349 L124.707,85.919 L134.438,85.919 L134.438,48.106 C138.774,46.024 142.567,44.414 145.816,43.273 C149.064,42.132 152.226,41.554 155.302,41.539 L158.513,41.539 L159.66,33.078 L159.66,33.078 L159.66,33.078 Z" id="Shape" fill="#000000"></path>
                <path d="M238.602,33.078 C234.881,33.078 231.163,33.845 227.446,35.378 C223.727,36.911 219.952,39.211 216.119,42.279 C215.31,39.211 213.722,36.911 211.353,35.378 C208.984,33.844 205.875,33.078 202.029,33.078 C198.152,33.08 194.347,33.869 190.616,35.445 C186.883,37.02 183.08,39.369 179.204,42.492 L178.632,34.349 L170.619,34.349 L170.619,85.919 L180.349,85.919 L180.349,48.635 C184.526,45.802 187.957,43.762 190.643,42.518 C193.33,41.273 196.016,40.665 198.702,40.691 C201.625,40.654 203.809,41.337 205.255,42.743 C206.7,44.149 207.422,46.501 207.42,49.8 L207.42,85.919 L216.807,85.919 L216.807,48.635 C220.927,45.848 224.329,43.822 227.014,42.557 C229.701,41.293 232.417,40.671 235.159,40.69 C238.225,40.672 240.438,41.397 241.798,42.861 C243.157,44.326 243.853,46.639 243.878,49.799 L243.878,85.918 L253.493,85.918 L253.493,47.257 C253.475,42.591 252.196,39.063 249.657,36.674 C247.119,34.285 243.43,33.086 238.602,33.078 L238.602,33.078 L238.602,33.078 Z" id="Shape" fill="#000000"></path>
                <path d="M274.01,12.423 C273.035,12.431 272.293,12.678 271.789,13.163 C271.287,13.648 271.037,14.319 271.033,15.173 L271.033,21.204 C271.037,22.152 271.287,22.848 271.789,23.293 C272.293,23.738 273.035,23.959 274.01,23.9550536 L278.588,23.9550536 C279.613,23.959 280.365,23.739 280.85,23.293 C281.33,22.848 281.571,22.151 281.563,21.204 L281.563,15.173 C281.571,14.319 281.331,13.648 280.85,13.163 C280.366,12.678 279.614,12.432 278.588,12.423 L274.01,12.423 L274.01,12.423 L274.01,12.423 Z M281.105,85.918 L281.105,34.348 L271.49,34.348 L271.49,85.918 L281.105,85.918 L281.105,85.918 L281.105,85.918 Z" id="Shape" fill="#000000"></path>
                <path d="M314.287,41.432 L332.06,41.432 L332.06,34.349 L314.287,34.349 L314.287,19.097 L304.557,19.097 L304.557,34.349 L294.471,34.877 L294.471,41.432 L304.557,41.432 L304.557,72.901 C304.569,77.42 305.782,80.875 308.194,83.262 C310.606,85.649 314.169,86.853 318.874,86.8721044 C320.374,86.876 322.36,86.765 324.837,86.543 C327.31,86.317 329.526,85.97 331.483,85.497 L330.338,78.624 L321.854,78.624 C319.131,78.646 317.184,78.122 316.008,77.046 C314.834,75.971 314.26,74.201 314.287,71.736 L314.287,41.432 L314.287,41.432 L314.287,41.432 Z" id="Shape" fill="#006AB3"></path>
                <path d="M369.295,79.578 C363.604,79.719 359.359,78.747 356.561,76.663 C353.768,74.579 352.161,70.529 351.747,64.524 L377.669,64.524 C382.29,64.491 385.679,63.209 387.833,60.675 C389.991,58.142 391.034,54.555 390.956,49.913 C391.011,44.344 389.126,40.147 385.298,37.323 C381.474,34.499 375.374,33.084 367.001,33.077 C358.056,32.933 351.526,34.887 347.413,38.937 C343.302,42.989 341.272,50.001 341.327,59.976 C341.235,69.778 343.278,76.791 347.458,81.011 C351.634,85.235 358.495,87.293 368.036,87.189 C371.417,87.196 375.175,86.971 379.298,86.517 C383.425,86.059 386.892,85.334 389.696,84.333 L388.665,78.302 C385.727,78.683 382.528,78.986 379.073,79.219 C375.613,79.452 372.354,79.57 369.295,79.578 L369.295,79.578 L369.295,79.578 Z M367.459,40.69 C372.391,40.664 375.92,41.379 378.041,42.836 C380.162,44.294 381.227,46.652 381.227,49.912 C381.286,51.899 380.905,53.649 380.077,55.159 C379.249,56.669 377.606,57.465 375.145,57.544 L351.518,57.544 C351.608,51.137 352.86,46.698 355.272,44.227 C357.686,41.757 361.75,40.578 367.459,40.69 L367.459,40.69 L367.459,40.69 Z" id="Shape" fill="#006AB3"></path>
                <path d="M415.404,11.788 L405.675,11.788 L405.675,73.751 C405.728,78.004 406.968,81.249 409.396,83.488 C411.824,85.727 415.126,86.854 419.302,86.8721044 C420.796,86.876 422.57,86.765 424.62,86.543 C426.673,86.317 428.3,85.97 429.509,85.497 L428.359,78.624 L422.972,78.624 C420.495,78.62 418.601,78.044 417.284,76.887 C415.966,75.734 415.304,74.016 415.29,71.736 L415.404,11.788 L415.404,11.788 L415.404,11.788 Z" id="Shape" fill="#006AB3"></path>
                <path d="M435.631,0.146 C432.668,0.212 430.211,1.145 428.264,2.94 C426.317,4.735 425.305,6.993 425.235,9.71 C425.305,12.447 426.317,14.716 428.264,16.517 C430.211,18.316 432.668,19.249 435.631,19.316 C438.572,19.25 441.012,18.316 442.959,16.517 C444.902,14.716 445.908,12.448 445.98,9.71 C445.908,6.993 444.902,4.736 442.959,2.94 C441.012,1.144 438.572,0.212 435.631,0.146 L435.631,0.146 L435.631,0.146 Z M435.631,18.028 C433.098,17.969 430.986,17.159 429.299,15.597 C427.613,14.035 426.738,12.073 426.674,9.71 C426.738,7.363 427.613,5.405 429.299,3.836 C430.987,2.266 433.098,1.45 435.631,1.389 C438.145,1.45 440.242,2.265 441.92,3.836 C443.602,5.405 444.477,7.363 444.545,9.71 C444.477,12.073 443.602,14.035 441.92,15.597 C440.242,17.159 438.145,17.969 435.631,18.028 L435.631,18.028 L435.631,18.028 Z M438.104,10.008 C439.094,9.903 439.803,9.62 440.229,9.159 C440.653,8.699 440.864,8.049 440.854,7.209 C440.864,5.981 440.491,5.131 439.729,4.658 C438.969,4.185 437.743,3.96 436.053,3.981 C434.897,3.979 433.951,3.984 433.211,3.997 C432.473,4.011 431.727,4.049 430.969,4.111 L430.969,15.27 L432.83,15.27 L432.83,10.656 L436.098,10.656 C436.584,10.651 436.989,10.737 437.305,10.915 C437.623,11.092 437.875,11.394 438.059,11.82 L439.364,15.269 L441.319,15.269 L439.923,11.733 C439.753,11.217 439.501,10.827 439.173,10.559 C438.843,10.291 438.489,10.137 438.105,10.096 L438.105,10.008 L438.104,10.008 L438.104,10.008 Z M432.83,9.409 L432.83,5.353 L436.004,5.353 C437.092,5.333 437.859,5.46 438.315,5.737 C438.77,6.012 438.979,6.561 438.946,7.381 C438.979,8.124 438.77,8.646 438.315,8.946 C437.86,9.246 437.092,9.401 436.004,9.409 L432.83,9.409 L432.83,9.409 L432.83,9.409 Z" id="Shape" fill="#000000"></path>
            </g>
            <path d="M7.344,41.306 C5.34932336,41.306 3.81933866,40.9093373 2.754,40.116 C1.68866134,39.3226627 0.96333526,38.2063405 0.578,36.767 C0.19266474,35.3276595 0,33.6446763 0,31.718 L0,13.46 L3.672,13.46 L3.672,31.888 C3.672,33.0666726 3.75133254,34.1433285 3.91,35.118 C4.06866746,36.0926715 4.41433067,36.8633305 4.947,37.43 C5.47966933,37.9966695 6.27866134,38.28 7.344,38.28 C8.43200544,38.28 9.23666406,37.9966695 9.758,37.43 C10.2793359,36.8633305 10.6193325,36.0926715 10.778,35.118 C10.9366675,34.1433285 11.016,33.0666726 11.016,31.888 L11.016,13.46 L14.654,13.46 L14.654,31.718 C14.654,33.6446763 14.4613353,35.3276595 14.076,36.767 C13.6906647,38.2063405 12.9710053,39.3226627 11.917,40.116 C10.8629947,40.9093373 9.33867664,41.306 7.344,41.306 Z M18.394,41 L18.394,21.348 L22.032,21.348 L22.032,23.286 C22.6893366,22.6739969 23.4146627,22.1526688 24.208,21.722 C25.0013373,21.2913312 25.8739952,21.076 26.826,21.076 C27.6193373,21.076 28.2256646,21.279998 28.645,21.688 C29.0643354,22.096002 29.3589991,22.6059969 29.529,23.218 C29.6990009,23.8300031 29.784,24.4533302 29.784,25.088 L29.784,41 L26.146,41 L26.146,26.142 C26.146,25.4393298 26.044001,24.8953353 25.84,24.51 C25.635999,24.1246647 25.2166698,23.932 24.582,23.932 C24.173998,23.932 23.7490022,24.0509988 23.307,24.289 C22.8649978,24.5270012 22.440002,24.8159983 22.032,25.156 L22.032,41 L18.394,41 Z M38.556,41.272 C37.5359949,41.272 36.7143365,41.0793353 36.091,40.694 C35.4676635,40.3086647 35.0143347,39.7646702 34.731,39.062 C34.4476653,38.3593298 34.306,37.5320048 34.306,36.58 L34.306,23.762 L32.232,23.762 L32.232,21.348 L34.306,21.348 L34.306,15.602 L37.944,15.602 L37.944,21.348 L41.106,21.348 L41.106,23.762 L37.944,23.762 L37.944,36.342 C37.944,37.1126705 38.0686654,37.6623317 38.318,37.991 C38.5673346,38.3196683 39.0433298,38.484 39.746,38.484 C39.9273342,38.484 40.1369988,38.4726668 40.375,38.45 C40.6130012,38.4273332 40.8453322,38.4046668 41.072,38.382 L41.072,41.068 C40.6186644,41.1360003 40.1993353,41.1869998 39.814,41.221 C39.4286647,41.2550002 39.0093356,41.272 38.556,41.272 Z M49.232,41.272 C47.690659,41.272 46.5006709,40.9716697 45.662,40.371 C44.8233291,39.7703303 44.2396683,38.8863392 43.911,37.719 C43.5823317,36.5516608 43.418,35.1180085 43.418,33.418 L43.418,28.93 C43.418,27.1846579 43.5879983,25.7340058 43.928,24.578 C44.2680017,23.4219942 44.8629958,22.5493363 45.713,21.96 C46.5630043,21.3706637 47.7359925,21.076 49.232,21.076 C50.8866749,21.076 52.1049961,21.4159966 52.887,22.096 C53.6690039,22.7760034 54.1846654,23.7563269 54.434,25.037 C54.6833346,26.3176731 54.808,27.8533244 54.808,29.644 L54.808,31.242 L47.056,31.242 L47.056,35.186 C47.056,35.9793373 47.1296659,36.6253308 47.277,37.124 C47.4243341,37.6226692 47.6623317,37.9909988 47.991,38.229 C48.3196683,38.4670012 48.7446641,38.586 49.266,38.586 C49.8100027,38.586 50.2236653,38.455668 50.507,38.195 C50.7903347,37.934332 50.9829995,37.5603358 51.085,37.073 C51.1870005,36.5856642 51.238,36.0133366 51.238,35.356 L51.238,34.166 L54.774,34.166 L54.774,34.914 C54.774,36.8860099 54.3546709,38.438661 53.516,39.572 C52.6773291,40.705339 51.2493434,41.272 49.232,41.272 Z M47.056,29.27 L51.238,29.27 L51.238,27.502 C51.238,26.6859959 51.1926671,26.0003361 51.102,25.445 C51.0113329,24.8896639 50.8243348,24.4703347 50.541,24.187 C50.2576653,23.9036652 49.8100031,23.762 49.198,23.762 C48.6086637,23.762 48.1610015,23.8979986 47.855,24.17 C47.5489985,24.4420014 47.3393339,24.9009968 47.226,25.547 C47.1126661,26.1930032 47.056,27.082661 47.056,28.216 L47.056,29.27 Z M58.208,41 L58.208,21.348 L61.846,21.348 L61.846,24.136 C62.571337,22.9346607 63.296663,22.130002 64.022,21.722 C64.747337,21.313998 65.472663,21.11 66.198,21.11 L66.453,21.11 C66.5323337,21.11 66.6399993,21.1213332 66.776,21.144 L66.776,25.156 C66.5039986,25.0426661 66.1923351,24.9463337 65.841,24.867 C65.4896649,24.7876663 65.1326685,24.748 64.77,24.748 C64.2033305,24.748 63.687669,24.878332 63.223,25.139 C62.758331,25.399668 62.2993356,25.9039963 61.846,26.652 L61.846,41 L58.208,41 Z M73.576,41.272 C71.9666586,41.272 70.6746715,40.7676717 69.7,39.759 C68.7253285,38.7503283 68.1700007,37.4186749 68.034,35.764 L71.06,34.846 C71.2413342,36.0926729 71.5473312,37.0276635 71.978,37.651 C72.4086688,38.2743364 73.0433291,38.586 73.882,38.586 C74.5393366,38.586 75.0379983,38.3990019 75.378,38.025 C75.7180017,37.6509981 75.888,37.1466698 75.888,36.512 C75.888,35.9453305 75.7633346,35.4353356 75.514,34.982 C75.2646654,34.5286644 74.8566695,34.0640024 74.29,33.588 L70.924,30.698 C70.2439966,30.1086637 69.671669,29.451337 69.207,28.726 C68.742331,28.000663 68.51,27.0600058 68.51,25.904 C68.51,24.8613281 68.7196646,23.9830036 69.139,23.269 C69.5583354,22.5549964 70.1476629,22.0110019 70.907,21.637 C71.6663371,21.2629981 72.5559949,21.076 73.576,21.076 C75.1400078,21.076 76.3356625,21.5803283 77.163,22.589 C77.9903375,23.5976717 78.4606661,24.8159929 78.574,26.244 L76.126,27.162 C76.0353329,26.4819966 75.8993342,25.8870025 75.718,25.377 C75.5366658,24.8669974 75.2873349,24.4703347 74.97,24.187 C74.6526651,23.9036652 74.2333359,23.762 73.712,23.762 C73.1226637,23.762 72.6523351,23.9603313 72.301,24.357 C71.9496649,24.7536686 71.774,25.2239973 71.774,25.768 C71.774,26.1080017 71.8476659,26.4423317 71.995,26.771 C72.1423341,27.0996683 72.3973315,27.4226651 72.76,27.74 L76.228,30.936 C76.7040024,31.3666688 77.1516646,31.8313308 77.571,32.33 C77.9903354,32.8286692 78.3359986,33.3953302 78.608,34.03 C78.8800014,34.6646698 79.016,35.4013291 79.016,36.24 C79.016,37.3506722 78.7893356,38.2799963 78.336,39.028 C77.8826644,39.7760037 77.2480041,40.3369981 76.432,40.711 C75.6159959,41.0850019 74.6640054,41.272 73.576,41.272 Z M86.972,41.272 C85.9519949,41.272 85.1303365,41.0793353 84.507,40.694 C83.8836635,40.3086647 83.4303347,39.7646702 83.147,39.062 C82.8636652,38.3593298 82.722,37.5320048 82.722,36.58 L82.722,23.762 L80.648,23.762 L80.648,21.348 L82.722,21.348 L82.722,15.602 L86.36,15.602 L86.36,21.348 L89.522,21.348 L89.522,23.762 L86.36,23.762 L86.36,36.342 C86.36,37.1126705 86.4846654,37.6623317 86.734,37.991 C86.9833346,38.3196683 87.4593298,38.484 88.162,38.484 C88.3433342,38.484 88.5529988,38.4726668 88.791,38.45 C89.0290012,38.4273332 89.2613322,38.4046668 89.488,38.382 L89.488,41.068 C89.0346644,41.1360003 88.6153353,41.1869998 88.23,41.221 C87.8446647,41.2550002 87.4253356,41.272 86.972,41.272 Z M95.03,41.272 C94.2593295,41.272 93.6586688,41.068002 93.228,40.66 C92.7973312,40.251998 92.4970009,39.7420031 92.327,39.13 C92.1569992,38.5179969 92.072,37.8946698 92.072,37.26 L92.072,21.348 L95.71,21.348 L95.71,36.172 C95.71,36.8746702 95.811999,37.4243313 96.016,37.821 C96.220001,38.2176686 96.6393302,38.416 97.274,38.416 C97.682002,38.416 98.1069978,38.2970012 98.549,38.059 C98.9910022,37.8209988 99.415998,37.5320017 99.824,37.192 L99.824,21.348 L103.462,21.348 L103.462,41 L99.824,41 L99.824,39.062 C99.1893302,39.6740031 98.4696707,40.1953312 97.665,40.626 C96.8603293,41.0566688 95.9820048,41.272 95.03,41.272 Z M98.94,17.234 L98.94,13.46 L102.612,13.46 L102.612,17.234 L98.94,17.234 Z M93.092,17.234 L93.092,13.46 L96.764,13.46 L96.764,17.234 L93.092,17.234 Z M112.404,41.272 C111.383995,41.272 110.562336,41.0793353 109.939,40.694 C109.315664,40.3086647 108.862335,39.7646702 108.579,39.062 C108.295665,38.3593298 108.154,37.5320048 108.154,36.58 L108.154,23.762 L106.08,23.762 L106.08,21.348 L108.154,21.348 L108.154,15.602 L111.792,15.602 L111.792,21.348 L114.954,21.348 L114.954,23.762 L111.792,23.762 L111.792,36.342 C111.792,37.1126705 111.916665,37.6623317 112.166,37.991 C112.415335,38.3196683 112.89133,38.484 113.594,38.484 C113.775334,38.484 113.984999,38.4726668 114.223,38.45 C114.461001,38.4273332 114.693332,38.4046668 114.92,38.382 L114.92,41.068 C114.466664,41.1360003 114.047335,41.1869998 113.662,41.221 C113.276665,41.2550002 112.857336,41.272 112.404,41.272 Z M116.892,41 L116.892,38.552 L122.91,24.068 L117.504,24.068 L117.504,21.348 L126.82,21.348 L126.82,23.32 L120.768,38.246 L126.684,38.246 L126.684,41 L116.892,41 Z M134.674,41.272 C133.653995,41.272 132.832336,41.0793353 132.209,40.694 C131.585664,40.3086647 131.132335,39.7646702 130.849,39.062 C130.565665,38.3593298 130.424,37.5320048 130.424,36.58 L130.424,23.762 L128.35,23.762 L128.35,21.348 L130.424,21.348 L130.424,15.602 L134.062,15.602 L134.062,21.348 L137.224,21.348 L137.224,23.762 L134.062,23.762 L134.062,36.342 C134.062,37.1126705 134.186665,37.6623317 134.436,37.991 C134.685335,38.3196683 135.16133,38.484 135.864,38.484 C136.045334,38.484 136.254999,38.4726668 136.493,38.45 C136.731001,38.4273332 136.963332,38.4046668 137.19,38.382 L137.19,41.068 C136.736664,41.1360003 136.317335,41.1869998 135.932,41.221 C135.546665,41.2550002 135.127336,41.272 134.674,41.272 Z M99.994,92 L96.118,72.348 L99.79,72.348 L102.204,88.158 L104.652,72.348 L108.188,72.348 L104.448,92 L99.994,92 Z M115.94,92.272 C114.489326,92.272 113.344671,91.9773363 112.506,91.388 C111.667329,90.7986637 111.072335,89.9600054 110.721,88.872 C110.369665,87.7839946 110.194,86.5033407 110.194,85.03 L110.194,79.318 C110.194,77.8446593 110.369665,76.5640054 110.721,75.476 C111.072335,74.3879946 111.667329,73.5493363 112.506,72.96 C113.344671,72.3706637 114.489326,72.076 115.94,72.076 C117.390674,72.076 118.529663,72.3706637 119.357,72.96 C120.184337,73.5493363 120.773665,74.3879946 121.125,75.476 C121.476335,76.5640054 121.652,77.8446593 121.652,79.318 L121.652,85.03 C121.652,86.5033407 121.476335,87.7839946 121.125,88.872 C120.773665,89.9600054 120.184337,90.7986637 119.357,91.388 C118.529663,91.9773363 117.390674,92.272 115.94,92.272 Z M115.94,89.586 C116.64267,89.586 117.135665,89.382002 117.419,88.974 C117.702335,88.565998 117.872333,88.02767 117.929,87.359 C117.985667,86.69033 118.014,85.993337 118.014,85.268 L118.014,79.114 C118.014,78.3659963 117.985667,77.6633366 117.929,77.006 C117.872333,76.3486634 117.702335,75.8103354 117.419,75.391 C117.135665,74.9716646 116.64267,74.762 115.94,74.762 C115.23733,74.762 114.738668,74.9716646 114.444,75.391 C114.149332,75.8103354 113.973667,76.3486634 113.917,77.006 C113.860333,77.6633366 113.832,78.3659963 113.832,79.114 L113.832,85.268 C113.832,85.993337 113.860333,86.69033 113.917,87.359 C113.973667,88.02767 114.149332,88.565998 114.444,88.974 C114.738668,89.382002 115.23733,89.586 115.94,89.586 Z M124.984,92 L124.984,72.348 L128.622,72.348 L128.622,74.286 C129.279337,73.6739969 130.004663,73.1526688 130.798,72.722 C131.591337,72.2913312 132.463995,72.076 133.416,72.076 C134.209337,72.076 134.815665,72.279998 135.235,72.688 C135.654335,73.096002 135.948999,73.6059969 136.119,74.218 C136.289001,74.8300031 136.374,75.4533302 136.374,76.088 L136.374,92 L132.736,92 L132.736,77.142 C132.736,76.4393298 132.634001,75.8953353 132.43,75.51 C132.225999,75.1246647 131.80667,74.932 131.172,74.932 C130.763998,74.932 130.339002,75.0509988 129.897,75.289 C129.454998,75.5270012 129.030002,75.8159983 128.622,76.156 L128.622,92 L124.984,92 Z" id="Unterstütztvon" fill="#999999"></path>
        </g>
    </g>
</svg>