<?xml version="1.0" encoding="UTF-8"?>
<svg width="601px" height="100px" viewBox="0 0 601 100" version="1.1" xmlns="http://www.w3.org/2000/svg" xmlns:xlink="http://www.w3.org/1999/xlink">
    <title>Group</title>
    <g id="Page-1" stroke="none" stroke-width="1" fill="none" fill-rule="evenodd">
        <g id="Group" transform="translate(0.926000, 0.000000)" fill-rule="nonzero">
            <g id="Termitel-Logo" transform="translate(153.074000, 0.000000)">
                <polygon id="Shape" fill="#000000" points="62.086 21.096 62.086 12.846 0.996 12.846 0.996 21.096 26.447 21.096 26.447 85.918 36.521 85.918 36.521 21.096"></polygon>
                <path d="M88.44,79.578 C82.749,79.719 78.504,78.747 75.709,76.663 C72.913,74.579 71.307,70.529 70.891,64.524 L96.814,64.524 C101.434,64.491 104.822,63.209 106.979,60.675 C109.136,58.142 110.176,54.555 110.1,49.913 C110.155,44.344 108.27,40.147 104.444,37.323 C100.618,34.499 94.52,33.084 86.147,33.077 C77.2,32.933 70.671,34.887 66.559,38.937 C62.446,42.989 60.418,50.001 60.473,59.976 C60.382,69.778 62.425,76.791 66.602,81.011 C70.778,85.235 77.638,87.293 87.179,87.189 C90.564,87.196 94.318,86.971 98.444,86.517 C102.57,86.059 106.036,85.334 108.841,84.333 L107.811,78.302 C104.873,78.683 101.674,78.986 98.216,79.219 C94.757,79.452 91.499,79.57 88.44,79.578 L88.44,79.578 L88.44,79.578 Z M86.606,40.69 C91.538,40.664 95.065,41.379 97.187,42.836 C99.309,44.294 100.37,46.652 100.37,49.912 C100.432,51.899 100.05,53.649 99.224,55.159 C98.398,56.669 96.753,57.465 94.292,57.544 L70.663,57.544 C70.755,51.137 72.006,46.698 74.419,44.227 C76.832,41.757 80.894,40.578 86.606,40.69 L86.606,40.69 L86.606,40.69 Z" id="Shape" fill="#000000"></path>
                <path d="M159.66,33.078 L157.137,33.078 C153.335,33.1 149.418,33.929 145.386,35.564 C141.356,37.198 137.323,39.507 133.293,42.492 L132.263,34.349 L124.707,34.349 L124.707,85.919 L134.438,85.919 L134.438,48.106 C138.774,46.024 142.567,44.414 145.816,43.273 C149.064,42.132 152.226,41.554 155.302,41.539 L158.513,41.539 L159.66,33.078 L159.66,33.078 L159.66,33.078 Z" id="Shape" fill="#000000"></path>
                <path d="M238.602,33.078 C234.881,33.078 231.163,33.845 227.446,35.378 C223.727,36.911 219.952,39.211 216.119,42.279 C215.31,39.211 213.722,36.911 211.353,35.378 C208.984,33.844 205.875,33.078 202.029,33.078 C198.152,33.08 194.347,33.869 190.616,35.445 C186.883,37.02 183.08,39.369 179.204,42.492 L178.632,34.349 L170.619,34.349 L170.619,85.919 L180.349,85.919 L180.349,48.635 C184.526,45.802 187.957,43.762 190.643,42.518 C193.33,41.273 196.016,40.665 198.702,40.691 C201.625,40.654 203.809,41.337 205.255,42.743 C206.7,44.149 207.422,46.501 207.42,49.8 L207.42,85.919 L216.807,85.919 L216.807,48.635 C220.927,45.848 224.329,43.822 227.014,42.557 C229.701,41.293 232.417,40.671 235.159,40.69 C238.225,40.672 240.438,41.397 241.798,42.861 C243.157,44.326 243.853,46.639 243.878,49.799 L243.878,85.918 L253.493,85.918 L253.493,47.257 C253.475,42.591 252.196,39.063 249.657,36.674 C247.119,34.285 243.43,33.086 238.602,33.078 L238.602,33.078 L238.602,33.078 Z" id="Shape" fill="#000000"></path>
                <path d="M274.01,12.423 C273.035,12.431 272.293,12.678 271.789,13.163 C271.287,13.648 271.037,14.319 271.033,15.173 L271.033,21.204 C271.037,22.152 271.287,22.848 271.789,23.293 C272.293,23.738 273.035,23.959 274.01,23.9550536 L278.588,23.9550536 C279.613,23.959 280.365,23.739 280.85,23.293 C281.33,22.848 281.571,22.151 281.563,21.204 L281.563,15.173 C281.571,14.319 281.331,13.648 280.85,13.163 C280.366,12.678 279.614,12.432 278.588,12.423 L274.01,12.423 L274.01,12.423 L274.01,12.423 Z M281.105,85.918 L281.105,34.348 L271.49,34.348 L271.49,85.918 L281.105,85.918 L281.105,85.918 L281.105,85.918 Z" id="Shape" fill="#000000"></path>
                <path d="M314.287,41.432 L332.06,41.432 L332.06,34.349 L314.287,34.349 L314.287,19.097 L304.557,19.097 L304.557,34.349 L294.471,34.877 L294.471,41.432 L304.557,41.432 L304.557,72.901 C304.569,77.42 305.782,80.875 308.194,83.262 C310.606,85.649 314.169,86.853 318.874,86.8721044 C320.374,86.876 322.36,86.765 324.837,86.543 C327.31,86.317 329.526,85.97 331.483,85.497 L330.338,78.624 L321.854,78.624 C319.131,78.646 317.184,78.122 316.008,77.046 C314.834,75.971 314.26,74.201 314.287,71.736 L314.287,41.432 L314.287,41.432 L314.287,41.432 Z" id="Shape" fill="#006AB3"></path>
                <path d="M369.295,79.578 C363.604,79.719 359.359,78.747 356.561,76.663 C353.768,74.579 352.161,70.529 351.747,64.524 L377.669,64.524 C382.29,64.491 385.679,63.209 387.833,60.675 C389.991,58.142 391.034,54.555 390.956,49.913 C391.011,44.344 389.126,40.147 385.298,37.323 C381.474,34.499 375.374,33.084 367.001,33.077 C358.056,32.933 351.526,34.887 347.413,38.937 C343.302,42.989 341.272,50.001 341.327,59.976 C341.235,69.778 343.278,76.791 347.458,81.011 C351.634,85.235 358.495,87.293 368.036,87.189 C371.417,87.196 375.175,86.971 379.298,86.517 C383.425,86.059 386.892,85.334 389.696,84.333 L388.665,78.302 C385.727,78.683 382.528,78.986 379.073,79.219 C375.613,79.452 372.354,79.57 369.295,79.578 L369.295,79.578 L369.295,79.578 Z M367.459,40.69 C372.391,40.664 375.92,41.379 378.041,42.836 C380.162,44.294 381.227,46.652 381.227,49.912 C381.286,51.899 380.905,53.649 380.077,55.159 C379.249,56.669 377.606,57.465 375.145,57.544 L351.518,57.544 C351.608,51.137 352.86,46.698 355.272,44.227 C357.686,41.757 361.75,40.578 367.459,40.69 L367.459,40.69 L367.459,40.69 Z" id="Shape" fill="#006AB3"></path>
                <path d="M415.404,11.788 L405.675,11.788 L405.675,73.751 C405.728,78.004 406.968,81.249 409.396,83.488 C411.824,85.727 415.126,86.854 419.302,86.8721044 C420.796,86.876 422.57,86.765 424.62,86.543 C426.673,86.317 428.3,85.97 429.509,85.497 L428.359,78.624 L422.972,78.624 C420.495,78.62 418.601,78.044 417.284,76.887 C415.966,75.734 415.304,74.016 415.29,71.736 L415.404,11.788 L415.404,11.788 L415.404,11.788 Z" id="Shape" fill="#006AB3"></path>
                <path d="M435.631,0.146 C432.668,0.212 430.211,1.145 428.264,2.94 C426.317,4.735 425.305,6.993 425.235,9.71 C425.305,12.447 426.317,14.716 428.264,16.517 C430.211,18.316 432.668,19.249 435.631,19.316 C438.572,19.25 441.012,18.316 442.959,16.517 C444.902,14.716 445.908,12.448 445.98,9.71 C445.908,6.993 444.902,4.736 442.959,2.94 C441.012,1.144 438.572,0.212 435.631,0.146 L435.631,0.146 L435.631,0.146 Z M435.631,18.028 C433.098,17.969 430.986,17.159 429.299,15.597 C427.613,14.035 426.738,12.073 426.674,9.71 C426.738,7.363 427.613,5.405 429.299,3.836 C430.987,2.266 433.098,1.45 435.631,1.389 C438.145,1.45 440.242,2.265 441.92,3.836 C443.602,5.405 444.477,7.363 444.545,9.71 C444.477,12.073 443.602,14.035 441.92,15.597 C440.242,17.159 438.145,17.969 435.631,18.028 L435.631,18.028 L435.631,18.028 Z M438.104,10.008 C439.094,9.903 439.803,9.62 440.229,9.159 C440.653,8.699 440.864,8.049 440.854,7.209 C440.864,5.981 440.491,5.131 439.729,4.658 C438.969,4.185 437.743,3.96 436.053,3.981 C434.897,3.979 433.951,3.984 433.211,3.997 C432.473,4.011 431.727,4.049 430.969,4.111 L430.969,15.27 L432.83,15.27 L432.83,10.656 L436.098,10.656 C436.584,10.651 436.989,10.737 437.305,10.915 C437.623,11.092 437.875,11.394 438.059,11.82 L439.364,15.269 L441.319,15.269 L439.923,11.733 C439.753,11.217 439.501,10.827 439.173,10.559 C438.843,10.291 438.489,10.137 438.105,10.096 L438.105,10.008 L438.104,10.008 L438.104,10.008 Z M432.83,9.409 L432.83,5.353 L436.004,5.353 C437.092,5.333 437.859,5.46 438.315,5.737 C438.77,6.012 438.979,6.561 438.946,7.381 C438.979,8.124 438.77,8.646 438.315,8.946 C437.86,9.246 437.092,9.401 436.004,9.409 L432.83,9.409 L432.83,9.409 L432.83,9.409 Z" id="Shape" fill="#000000"></path>
            </g>
            <path d="M10.734,39.63 C12.1573333,39.63 13.3648333,39.385 14.3565,38.895 C15.3481667,38.405 16.159,37.7341667 16.789,36.8825 C17.419,36.0308333 17.874,35.0333333 18.154,33.89 C18.434,32.7466667 18.574,31.5216667 18.574,30.215 L18.574,30.215 L18.574,14.22 L14.409,14.22 L14.409,29.83 C14.409,30.6 14.3565,31.3408333 14.2515,32.0525 C14.1465,32.7641667 13.9598333,33.3883333 13.6915,33.925 C13.4231667,34.4616667 13.0556667,34.8875 12.589,35.2025 C12.1223333,35.5175 11.5273333,35.675 10.804,35.675 C10.0806667,35.675 9.48566667,35.5175 9.019,35.2025 C8.55233333,34.8875 8.18483333,34.4616667 7.9165,33.925 C7.64816667,33.3883333 7.4615,32.7641667 7.3565,32.0525 C7.2515,31.3408333 7.199,30.6 7.199,29.83 L7.199,29.83 L7.199,14.22 L2.999,14.22 L2.999,30.215 C2.999,31.5216667 3.13316667,32.7466667 3.4015,33.89 C3.66983333,35.0333333 4.11316667,36.0308333 4.7315,36.8825 C5.34983333,37.7341667 6.149,38.405 7.129,38.895 C8.109,39.385 9.31066667,39.63 10.734,39.63 Z M27.114,39 L27.114,28.675 C27.114,27.3216667 27.3765,26.2016667 27.9015,25.315 C28.4265,24.4283333 29.1323333,23.985 30.019,23.985 C30.4856667,23.985 30.8648333,24.0958333 31.1565,24.3175 C31.4481667,24.5391667 31.6698333,24.8366667 31.8215,25.21 C31.9731667,25.5833333 32.0723333,25.9975 32.119,26.4525 C32.1656667,26.9075 32.189,27.3566667 32.189,27.8 L32.189,27.8 L32.189,39 L36.144,39 L36.144,27.8 C36.144,26.89 36.0856667,25.9975 35.969,25.1225 C35.8523333,24.2475 35.6306667,23.4716667 35.304,22.795 C34.9773333,22.1183333 34.5165,21.5758333 33.9215,21.1675 C33.3265,20.7591667 32.539,20.555 31.559,20.555 C30.439,20.555 29.4998333,20.8875 28.7415,21.5525 C27.9831667,22.2175 27.4406667,23.0283333 27.114,23.985 L27.114,23.985 L27.044,23.985 L27.044,21.15 L23.159,21.15 L23.159,39 L27.114,39 Z M45.314,39.455 C45.7806667,39.455 46.2473333,39.4083333 46.714,39.315 C47.1806667,39.2216667 47.554,39.105 47.834,38.965 L47.834,38.965 L47.764,35.885 C47.6006667,35.9783333 47.4081667,36.0483333 47.1865,36.095 C46.9648333,36.1416667 46.749,36.165 46.539,36.165 C45.9323333,36.165 45.4831667,35.9433333 45.1915,35.5 C44.8998333,35.0566667 44.754,34.345 44.754,33.365 L44.754,33.365 L44.754,24.195 L47.869,24.195 L47.869,21.15 L44.754,21.15 L44.754,16.6 L41.044,16.6 L41.044,21.15 L38.804,21.15 L38.804,24.195 L41.044,24.195 L41.044,34.24 C41.044,35.92 41.3765,37.2091667 42.0415,38.1075 C42.7065,39.0058333 43.7973333,39.455 45.314,39.455 Z M56.549,39.595 C58.019,39.595 59.2265,39.2275 60.1715,38.4925 C61.1165,37.7575 61.8456667,36.7716667 62.359,35.535 L62.359,35.535 L59.454,33.855 C59.1973333,34.4616667 58.8531667,34.9983333 58.4215,35.465 C57.9898333,35.9316667 57.4123333,36.165 56.689,36.165 C56.1756667,36.165 55.7265,36.0308333 55.3415,35.7625 C54.9565,35.4941667 54.6298333,35.1325 54.3615,34.6775 C54.0931667,34.2225 53.889,33.6858333 53.749,33.0675 C53.609,32.4491667 53.539,31.79 53.539,31.09 L53.539,31.09 L62.814,31.09 L62.814,29.585 C62.814,28.3016667 62.6973333,27.1116667 62.464,26.015 C62.2306667,24.9183333 61.8631667,23.9675 61.3615,23.1625 C60.8598333,22.3575 60.2065,21.7216667 59.4015,21.255 C58.5965,20.7883333 57.6223333,20.555 56.479,20.555 C55.4523333,20.555 54.5248333,20.7825 53.6965,21.2375 C52.8681667,21.6925 52.1506667,22.34 51.544,23.18 C50.9373333,24.02 50.4706667,25.0291667 50.144,26.2075 C49.8173333,27.3858333 49.654,28.6866667 49.654,30.11 C49.654,33.1666667 50.284,35.5116667 51.544,37.145 C52.804,38.7783333 54.4723333,39.595 56.549,39.595 Z M59.034,28.22 L53.574,28.22 C53.574,27.8 53.6323333,27.3275 53.749,26.8025 C53.8656667,26.2775 54.0348333,25.7875 54.2565,25.3325 C54.4781667,24.8775 54.7698333,24.4983333 55.1315,24.195 C55.4931667,23.8916667 55.9306667,23.74 56.444,23.74 C57.3306667,23.74 57.984,24.1541667 58.404,24.9825 C58.824,25.8108333 59.034,26.89 59.034,28.22 L59.034,28.22 Z M70.479,39 L70.479,30.04 C70.479,29.3633333 70.549,28.6983333 70.689,28.045 C70.829,27.3916667 71.039,26.8083333 71.319,26.295 C71.599,25.7816667 71.9373333,25.3675 72.334,25.0525 C72.7306667,24.7375 73.1856667,24.58 73.699,24.58 C74.0023333,24.58 74.2823333,24.615 74.539,24.685 L74.539,24.685 L74.749,20.625 C74.6323333,20.5783333 74.5331667,20.555 74.4515,20.555 L74.4515,20.555 L74.154,20.555 C73.2673333,20.555 72.4973333,20.8933333 71.844,21.57 C71.1906667,22.2466667 70.7123333,23.25 70.409,24.58 L70.409,24.58 L70.339,24.58 L70.339,21.15 L66.454,21.15 L66.454,39 L70.479,39 Z M80.874,39.595 C81.6206667,39.595 82.3381667,39.4783333 83.0265,39.245 C83.7148333,39.0116667 84.3273333,38.65 84.864,38.16 C85.4006667,37.67 85.8265,37.0575 86.1415,36.3225 C86.4565,35.5875 86.614,34.73 86.614,33.75 C86.614,32.9333333 86.4915,32.2275 86.2465,31.6325 C86.0015,31.0375 85.6748333,30.53 85.2665,30.11 C84.8581667,29.69 84.4031667,29.3458333 83.9015,29.0775 C83.3998333,28.8091667 82.8923333,28.5816667 82.379,28.395 C81.469,28.0683333 80.804,27.7475 80.384,27.4325 C79.964,27.1175 79.754,26.61 79.754,25.91 C79.754,25.2333333 79.9523333,24.6908333 80.349,24.2825 C80.7456667,23.8741667 81.2356667,23.67 81.819,23.67 C82.449,23.67 83.009,23.81 83.499,24.09 C83.989,24.37 84.3973333,24.7316667 84.724,25.175 L84.724,25.175 L86.824,22.62 C86.2173333,22.0133333 85.4823333,21.5175 84.619,21.1325 C83.7556667,20.7475 82.7873333,20.555 81.714,20.555 C80.9906667,20.555 80.2906667,20.6775 79.614,20.9225 C78.9373333,21.1675 78.3423333,21.5291667 77.829,22.0075 C77.3156667,22.4858333 76.9015,23.0633333 76.5865,23.74 C76.2715,24.4166667 76.114,25.1866667 76.114,26.05 C76.114,26.8666667 76.2248333,27.5608333 76.4465,28.1325 C76.6681667,28.7041667 76.9656667,29.1883333 77.339,29.585 C77.7123333,29.9816667 78.1206667,30.2966667 78.564,30.53 C79.0073333,30.7633333 79.4623333,30.9616667 79.929,31.125 C80.839,31.4516667 81.5681667,31.8016667 82.1165,32.175 C82.6648333,32.5483333 82.939,33.155 82.939,33.995 C82.939,34.7183333 82.7523333,35.3016667 82.379,35.745 C82.0056667,36.1883333 81.4923333,36.41 80.839,36.41 C80.0923333,36.41 79.439,36.235 78.879,35.885 C78.319,35.535 77.829,35.115 77.409,34.625 L77.409,34.625 L75.274,37.145 C75.9506667,37.8916667 76.7731667,38.4866667 77.7415,38.93 C78.7098333,39.3733333 79.754,39.595 80.874,39.595 Z M94.664,39.455 C95.1306667,39.455 95.5973333,39.4083333 96.064,39.315 C96.5306667,39.2216667 96.904,39.105 97.184,38.965 L97.184,38.965 L97.114,35.885 C96.9506667,35.9783333 96.7581667,36.0483333 96.5365,36.095 C96.3148333,36.1416667 96.099,36.165 95.889,36.165 C95.2823333,36.165 94.8331667,35.9433333 94.5415,35.5 C94.2498333,35.0566667 94.104,34.345 94.104,33.365 L94.104,33.365 L94.104,24.195 L97.219,24.195 L97.219,21.15 L94.104,21.15 L94.104,16.6 L90.394,16.6 L90.394,21.15 L88.154,21.15 L88.154,24.195 L90.394,24.195 L90.394,34.24 C90.394,35.92 90.7265,37.2091667 91.3915,38.1075 C92.0565,39.0058333 93.1473333,39.455 94.664,39.455 Z M103.694,18.315 C104.300667,18.315 104.802333,18.0933333 105.199,17.65 C105.595667,17.2066667 105.794,16.6583333 105.794,16.005 C105.794,15.375 105.595667,14.8383333 105.199,14.395 C104.802333,13.9516667 104.300667,13.73 103.694,13.73 C103.087333,13.73 102.5915,13.9516667 102.2065,14.395 C101.8215,14.8383333 101.629,15.375 101.629,16.005 C101.629,16.6583333 101.8215,17.2066667 102.2065,17.65 C102.5915,18.0933333 103.087333,18.315 103.694,18.315 Z M109.189,18.315 C109.772333,18.315 110.268167,18.0933333 110.6765,17.65 C111.084833,17.2066667 111.289,16.6583333 111.289,16.005 C111.289,15.375 111.090667,14.8383333 110.694,14.395 C110.297333,13.9516667 109.795667,13.73 109.189,13.73 C108.582333,13.73 108.0865,13.9516667 107.7015,14.395 C107.3165,14.8383333 107.124,15.375 107.124,16.005 C107.124,16.6583333 107.3165,17.2066667 107.7015,17.65 C108.0865,18.0933333 108.582333,18.315 109.189,18.315 Z M104.499,39.595 C105.619,39.595 106.558167,39.2625 107.3165,38.5975 C108.074833,37.9325 108.617333,37.1216667 108.944,36.165 L108.944,36.165 L109.014,36.165 L109.014,39 L112.899,39 L112.899,21.15 L108.944,21.15 L108.944,31.475 C108.944,32.8283333 108.6815,33.9425 108.1565,34.8175 C107.6315,35.6925 106.925667,36.13 106.039,36.13 C105.572333,36.13 105.193167,36.0191667 104.9015,35.7975 C104.609833,35.5758333 104.388167,35.2841667 104.2365,34.9225 C104.084833,34.5608333 103.985667,34.1583333 103.939,33.715 C103.892333,33.2716667 103.869,32.8166667 103.869,32.35 L103.869,32.35 L103.869,21.15 L99.914,21.15 L99.914,32.35 C99.914,33.26 99.9723333,34.1525 100.089,35.0275 C100.205667,35.9025 100.427333,36.6783333 100.754,37.355 C101.080667,38.0316667 101.5415,38.5741667 102.1365,38.9825 C102.7315,39.3908333 103.519,39.595 104.499,39.595 Z M122.279,39.455 C122.745667,39.455 123.212333,39.4083333 123.679,39.315 C124.145667,39.2216667 124.519,39.105 124.799,38.965 L124.799,38.965 L124.729,35.885 C124.565667,35.9783333 124.373167,36.0483333 124.1515,36.095 C123.929833,36.1416667 123.714,36.165 123.504,36.165 C122.897333,36.165 122.448167,35.9433333 122.1565,35.5 C121.864833,35.0566667 121.719,34.345 121.719,33.365 L121.719,33.365 L121.719,24.195 L124.834,24.195 L124.834,21.15 L121.719,21.15 L121.719,16.6 L118.009,16.6 L118.009,21.15 L115.769,21.15 L115.769,24.195 L118.009,24.195 L118.009,34.24 C118.009,35.92 118.3415,37.2091667 119.0065,38.1075 C119.6715,39.0058333 120.762333,39.455 122.279,39.455 Z M137.154,39 L137.154,35.64 L130.399,35.64 L137.119,24.335 L137.119,21.15 L126.689,21.15 L126.689,24.51 L132.919,24.51 L126.199,35.675 L126.199,39 L137.154,39 Z M145.064,39.455 C145.530667,39.455 145.997333,39.4083333 146.464,39.315 C146.930667,39.2216667 147.304,39.105 147.584,38.965 L147.584,38.965 L147.514,35.885 C147.350667,35.9783333 147.158167,36.0483333 146.9365,36.095 C146.714833,36.1416667 146.499,36.165 146.289,36.165 C145.682333,36.165 145.233167,35.9433333 144.9415,35.5 C144.649833,35.0566667 144.504,34.345 144.504,33.365 L144.504,33.365 L144.504,24.195 L147.619,24.195 L147.619,21.15 L144.504,21.15 L144.504,16.6 L140.794,16.6 L140.794,21.15 L138.554,21.15 L138.554,24.195 L140.794,24.195 L140.794,34.24 C140.794,35.92 141.1265,37.2091667 141.7915,38.1075 C142.4565,39.0058333 143.547333,39.455 145.064,39.455 Z M108.944,87 L113.669,69.15 L109.644,69.15 L106.739,82.835 L106.669,82.835 L103.659,69.15 L99.494,69.15 L104.219,87 L108.944,87 Z M122.209,87.595 C123.282333,87.595 124.239,87.3616667 125.079,86.895 C125.919,86.4283333 126.6365,85.7808333 127.2315,84.9525 C127.8265,84.1241667 128.2815,83.1266667 128.5965,81.96 C128.9115,80.7933333 129.069,79.51 129.069,78.11 C129.069,76.6866667 128.9115,75.3858333 128.5965,74.2075 C128.2815,73.0291667 127.8265,72.02 127.2315,71.18 C126.6365,70.34 125.919,69.6925 125.079,69.2375 C124.239,68.7825 123.282333,68.555 122.209,68.555 C121.135667,68.555 120.173167,68.7825 119.3215,69.2375 C118.469833,69.6925 117.752333,70.34 117.169,71.18 C116.585667,72.02 116.1365,73.0291667 115.8215,74.2075 C115.5065,75.3858333 115.349,76.6866667 115.349,78.11 C115.349,79.51 115.5065,80.7933333 115.8215,81.96 C116.1365,83.1266667 116.5915,84.1241667 117.1865,84.9525 C117.7815,85.7808333 118.499,86.4283333 119.339,86.895 C120.179,87.3616667 121.135667,87.595 122.209,87.595 Z M122.209,84.13 C121.695667,84.13 121.258167,83.9725 120.8965,83.6575 C120.534833,83.3425 120.237333,82.9166667 120.004,82.38 C119.770667,81.8433333 119.595667,81.2016667 119.479,80.455 C119.362333,79.7083333 119.304,78.915 119.304,78.075 C119.304,77.2116667 119.362333,76.4125 119.479,75.6775 C119.595667,74.9425 119.770667,74.3008333 120.004,73.7525 C120.237333,73.2041667 120.534833,72.7725 120.8965,72.4575 C121.258167,72.1425 121.695667,71.985 122.209,71.985 C122.722333,71.985 123.159833,72.1425 123.5215,72.4575 C123.883167,72.7725 124.1865,73.2041667 124.4315,73.7525 C124.6765,74.3008333 124.857333,74.9425 124.974,75.6775 C125.090667,76.4125 125.149,77.2116667 125.149,78.075 C125.149,78.915 125.090667,79.7083333 124.974,80.455 C124.857333,81.2016667 124.682333,81.8433333 124.449,82.38 C124.215667,82.9166667 123.912333,83.3425 123.539,83.6575 C123.165667,83.9725 122.722333,84.13 122.209,84.13 Z M136.804,87 L136.804,76.675 C136.804,75.3216667 137.0665,74.2016667 137.5915,73.315 C138.1165,72.4283333 138.822333,71.985 139.709,71.985 C140.175667,71.985 140.554833,72.0958333 140.8465,72.3175 C141.138167,72.5391667 141.359833,72.8366667 141.5115,73.21 C141.663167,73.5833333 141.762333,73.9975 141.809,74.4525 C141.855667,74.9075 141.879,75.3566667 141.879,75.8 L141.879,75.8 L141.879,87 L145.834,87 L145.834,75.8 C145.834,74.89 145.775667,73.9975 145.659,73.1225 C145.542333,72.2475 145.320667,71.4716667 144.994,70.795 C144.667333,70.1183333 144.2065,69.5758333 143.6115,69.1675 C143.0165,68.7591667 142.229,68.555 141.249,68.555 C140.129,68.555 139.189833,68.8875 138.4315,69.5525 C137.673167,70.2175 137.130667,71.0283333 136.804,71.985 L136.804,71.985 L136.734,71.985 L136.734,69.15 L132.849,69.15 L132.849,87 L136.804,87 Z" id="Unterstütztvon" fill="#999999"></path>
        </g>
    </g>
</svg>